<svg width="230" height="230" viewBox="0 0 230 230" fill="none" xmlns="http://www.w3.org/2000/svg">
<g clip-path="url(#clip0_671_12651)">
<rect width="230" height="230" fill="white"/>
<path d="M106 123V101.5L106.5 96L130.5 98L126 109V119L131 126L138 130H148L157 124L162.5 114H169.5L177 124L179 132L169.5 142.5L150 150.5H130.5L117.5 142.5L106 123Z" fill="#FF0202" stroke="black"/>
<path fill-rule="evenodd" clip-rule="evenodd" d="M-97.9798 17.2391C-105.524 49.1141 -108.106 64.5201 -110.592 92.5001C-111.847 106.614 -112.643 111.364 -114.28 114.5C-115.428 116.7 -119.707 124.575 -123.788 132C-127.87 139.425 -133.841 151.35 -137.059 158.5C-140.276 165.65 -145.421 176.99 -148.492 183.699C-153.135 193.843 -154.063 196.791 -153.997 201.199C-153.954 204.115 -153.664 205.825 -153.354 205C-149.002 193.432 -136.095 163.778 -129.632 150.5C-121.259 133.295 -113.17 118.668 -113.041 120.5C-112.533 127.755 -113.495 148.722 -114.551 153.408C-115.306 156.759 -117.108 167.6 -118.555 177.5C-120.001 187.4 -121.626 196.306 -122.165 197.291C-122.703 198.276 -122.895 199.484 -122.591 199.976C-121.751 201.335 -124.705 222.951 -126.353 227.5C-127.149 229.7 -128.786 235.775 -129.99 241C-131.193 246.225 -132.41 251.287 -132.694 252.25C-133.183 253.905 -129.432 254 -63.7268 254C-9.0748 254 5.86519 253.733 6.26219 252.75C6.66519 251.75 6.7822 251.75 6.8452 252.75C6.90421 253.687 10.4372 254 20.9432 254H34.9622L34.4452 251.75C32.3042 242.437 28.7462 212.751 28.2432 200C27.6322 184.533 28.3642 172.536 29.8632 173.462C30.2982 173.731 31.1992 176.775 31.8642 180.226C33.5632 189.032 39.5142 212.336 41.8952 219.5L43.8892 225.5L43.1562 218.5C42.2942 210.261 42.5582 167.167 43.5242 158.5C43.8922 155.2 44.2162 150.838 44.2442 148.806C44.2722 146.774 44.6422 145.326 45.0662 145.588C45.4902 145.85 45.5832 146.725 45.2732 147.532C44.9502 148.376 45.2872 149.007 46.0672 149.015C47.2092 149.028 47.2102 149.167 46.0672 149.89C45.1212 150.49 45.0462 150.957 45.8172 151.434C47.2192 152.3 48.9242 151.282 48.9242 149.58C48.9242 148.71 49.8042 148.446 51.5732 148.784C53.4012 149.133 54.0022 148.935 53.5142 148.145C53.0792 147.441 53.5262 147 54.6752 147C55.7042 147 59.3302 145.908 62.7342 144.574C66.1392 143.24 68.9242 142.518 68.9242 142.969C68.9242 144.046 76.9292 144.801 77.5582 143.784C77.8242 143.353 78.5782 143.007 79.2332 143.015C80.0652 143.026 80.0312 143.28 79.1192 143.858C78.2172 144.431 79.2202 145.223 82.3692 146.426C84.8742 147.383 86.9242 148.538 86.9242 148.993C86.9242 150.318 96.9312 154.934 98.4992 154.333C99.3682 153.999 99.9242 154.413 99.9242 155.393C99.9242 156.483 100.817 157 102.701 157C104.229 157 106.42 157.659 107.57 158.465C108.72 159.27 109.881 159.709 110.15 159.441C110.419 159.172 111.208 159.638 111.904 160.476C112.6 161.314 114.437 162 115.987 162C117.538 162 119.048 162.391 119.343 162.869C119.861 163.707 124.693 164.788 131.881 165.673C133.782 165.907 135.939 166.597 136.673 167.207C137.614 167.988 138.322 168.002 139.069 167.255C140.279 166.045 143.924 168.603 143.924 170.663C143.924 172.043 145.789 173.468 146.572 172.686C146.855 172.403 146.551 171.171 145.896 169.948C144.803 167.906 144.898 167.767 147.065 168.234C148.363 168.514 150.29 169.104 151.348 169.545C152.857 170.175 153.141 170.009 152.668 168.775C152.146 167.414 153.201 167.222 160.481 167.351C165.308 167.436 169.01 167.079 169.161 166.512C169.456 165.405 164.371 164.558 152.197 163.685C147.672 163.361 143.055 162.605 141.936 162.006C140.817 161.407 139.344 161.026 138.663 161.159C135.737 161.73 120.164 157.574 113.087 154.334C99.9632 148.326 86.1272 137.809 83.7032 132C81.2832 126.202 80.1012 118.942 81.0292 115.581C81.8862 112.477 84.9242 109.736 84.9242 112.067C84.9242 112.679 85.6062 112.74 86.6742 112.222C87.6372 111.755 89.4512 111.454 90.7062 111.552C91.9612 111.65 92.7522 111.495 92.4642 111.207C92.1772 110.919 92.5002 109.968 93.1832 109.092C94.2252 107.756 94.1832 107.663 92.9242 108.516C91.1662 109.706 88.9302 109.764 87.1742 108.665C84.8942 107.237 85.8782 106.303 89.4132 106.54C91.3322 106.669 92.6512 106.368 92.3442 105.871C92.0372 105.374 91.3672 105.226 90.8552 105.543C90.3432 105.859 89.4262 105.81 88.8172 105.434C88.0462 104.957 88.1212 104.49 89.0672 103.89C89.9752 103.315 90.0302 103.026 89.2332 103.015C88.5782 103.007 87.7642 103.45 87.4242 104C87.0842 104.55 86.3132 105 85.7102 105C85.1072 105 85.3862 104.147 86.3292 103.105C88.4192 100.796 92.4162 99.9001 93.9442 101.399C94.7662 102.205 94.9812 102.101 94.7452 101.014C94.5182 99.9631 95.3762 99.4761 97.6742 99.3511C100.27 99.2101 100.924 99.5591 100.924 101.087C100.924 102.236 100.225 103.006 99.1742 103.015C98.1862 103.024 97.8592 103.35 98.4242 103.765C98.9742 104.169 99.4742 108.325 99.5362 113C99.6862 124.383 100.185 126.581 104.382 134.354C107.944 140.951 114.707 148.215 119.782 150.895C121.235 151.663 122.649 152.563 122.924 152.895C123.199 153.228 125.74 154.29 128.571 155.255C145.93 161.172 163.529 156.645 176.221 142.996C183.445 135.228 183.162 135.157 187.621 145.826C189.722 150.851 189.76 151.37 188.296 155.029C187.21 157.743 185.259 159.86 181.796 162.082C176.544 165.452 175.91 166.716 180.31 165.043C183.279 163.915 190.924 156.54 190.924 154.805C190.924 153.06 194.211 156.477 196.318 160.412C198.599 164.673 197.357 167 192.802 167C188.728 167 189.227 168.647 193.547 169.457C195.54 169.831 197.947 170.622 198.896 171.215C200.768 172.384 205.924 171.531 205.924 170.052C205.924 169.552 205.362 168.536 204.674 167.794C199.977 162.727 189.768 138.89 191.978 138.15C192.63 137.932 192.448 136.922 191.496 135.469C190.155 133.423 185.926 123.244 185.925 122.06C185.924 121.817 188.191 124.067 190.962 127.06C195.572 132.037 195.857 132.202 194.308 129C192.517 125.299 187.06 119 185.645 119C185.184 119 185.127 119.52 185.519 120.155C185.965 120.876 185.793 121.037 185.062 120.585C184.418 120.187 184.178 119.399 184.527 118.833C184.877 118.266 181.521 114.248 177.069 109.902C172.616 105.556 169.322 102 169.749 102C170.175 102 171.064 102.54 171.724 103.2C173.298 104.774 175.33 102.87 175.424 99.7331C175.522 96.4731 178.929 87.0001 180.004 87.0001C181.394 87.0001 181.097 90.1441 179.4 93.3991C178.569 94.9931 178.117 96.5271 178.397 96.8071C178.678 97.0871 178.522 97.8071 178.052 98.4081C177.582 99.009 176.918 101.332 176.577 103.57C176.015 107.262 176.273 107.946 179.349 110.927C182.589 114.068 182.786 114.126 183.796 112.239C184.578 110.778 185.552 110.397 187.537 110.777C189.392 111.131 190.003 110.937 189.515 110.147C189.126 109.518 190.179 107.315 191.854 105.252C193.529 103.188 195.72 100.432 196.722 99.1261C198.497 96.812 198.626 96.7941 201.766 98.4181C203.538 99.3351 206.591 102.315 208.55 105.042C210.679 108.006 212.878 110 214.018 110C215.066 110 215.924 110.45 215.924 111C215.924 111.55 216.332 112 216.83 112C217.329 112 217.474 110.994 217.152 109.765C216.502 107.278 206.19 97.0001 204.345 97.0001C203.698 97.0001 202.61 96.326 201.926 95.5021C200.528 93.8171 202.814 90.2811 210.461 82.3011C214.573 78.0081 217.924 77.257 217.924 80.6281C217.924 81.4061 219.049 82.5551 220.424 83.1821C221.799 83.8081 222.924 84.8321 222.924 85.4571C222.924 86.0821 224.162 86.566 225.674 86.534C228.718 86.468 235.924 89.5491 235.924 90.9161C235.924 91.3951 236.497 92.0061 237.198 92.2751C238.113 92.6261 238.442 91.5981 238.365 88.6321C238.241 83.7981 235.661 77.4971 233.461 76.6531C232.616 76.3281 231.924 74.924 231.924 73.5311C231.924 71.5891 231.4 70.9871 229.674 70.9451C228.421 70.9141 226.389 69.5791 225.087 67.9311L222.75 64.9741L225.375 61.737C226.818 59.9571 229.779 56.339 231.955 53.697C234.13 51.056 236.418 47.906 237.039 46.697C237.66 45.489 239.302 43.284 240.687 41.798C243.864 38.391 254.225 23.6921 256.883 18.8231C257.987 16.8001 259.798 14.8571 260.907 14.5051C262.016 14.1531 262.924 13.0181 262.924 11.9821C262.924 10.9471 263.487 9.74005 264.174 9.30005C264.862 8.86005 266.465 6.58805 267.738 4.25005L270.052 5.07813e-05H225.559H181.066L179.456 5.75005C178.571 8.91205 177.412 12.4001 176.879 13.5001C176.347 14.6001 174.392 20.9001 172.535 27.5001C168.874 40.5131 167.298 45 166.39 45C166.069 45 166.115 44.5 166.493 43.8881C167.398 42.424 165.096 41.034 161.733 41.015C160.253 41.007 158.785 40.585 158.472 40.077C158.158 39.569 156.561 38.8601 154.924 38.5C150.6 37.55 150.442 36.5041 153.859 31.4411C155.545 28.9431 156.924 26.3171 156.924 25.6051C156.924 24.8931 157.813 23.5061 158.898 22.5231C159.984 21.5401 161.163 19.8241 161.517 18.7091C161.87 17.5931 163.906 14.1651 166.041 11.0901C168.175 8.01605 169.922 5.08505 169.923 4.57905C169.923 4.07205 170.669 2.83505 171.579 1.82905C173.18 0.0600507 171.939 5.07813e-05 133.779 5.07813e-05C94.0782 5.07813e-05 91.3102 0.237051 92.5702 3.52105C93.2162 5.20205 91.2712 6.37105 90.3392 4.86205C89.8542 4.07705 90.0522 3.96105 90.9392 4.51005C91.8802 5.09105 92.0922 4.88105 91.6722 3.78605C91.3472 2.93805 91.6082 1.70105 92.2522 1.03705C93.1602 0.103051 92.8602 -0.0939492 90.9242 0.165051C89.5492 0.349051 88.4242 1.02505 88.4242 1.66705C88.4242 2.30805 88.1012 3.15705 87.7052 3.55205C87.3102 3.94705 87.1752 3.29105 87.4062 2.09405C87.8112 -0.00694919 87.5612 -0.0719492 80.1992 0.209051L72.5742 0.500051L68.9992 8.65005C67.0332 13.132 64.8122 18.2211 64.0652 19.9571C63.3172 21.6941 62.5302 22.9391 62.3152 22.7241C62.1002 22.5101 63.9492 17.4341 66.4242 11.4441C68.8992 5.45505 70.9242 0.430051 70.9242 0.277051C70.9242 0.125051 68.5322 5.07813e-05 65.6082 5.07813e-05H60.2922L57.4302 5.98805C53.8422 13.4951 52.9732 13.2081 56.3272 5.62405L58.8142 5.07813e-05H54.9572H51.0992L48.1482 7.75005C46.5252 12.0131 44.1712 18.3231 42.9182 21.7741C38.7802 33.1631 39.8602 27.6091 44.4342 13.9691C46.9042 6.60705 48.9242 0.452051 48.9242 0.292051C48.9242 0.131051 40.9072 5.07813e-05 31.1082 5.07813e-05H13.2922L11.0612 3.97005C9.83418 6.15405 8.3472 8.23905 7.7562 8.60405C7.1662 8.96805 7.9052 7.18205 9.3992 4.63305L12.1142 5.07813e-05H0.254196H-11.6058L-22.4668 17.7501C-36.2548 40.284 -39.0498 44.669 -39.0638 43.791C-39.0748 43.126 -22.3498 13.6791 -17.5998 6.00005C-16.4088 4.07505 -15.1028 1.93805 -14.6968 1.25005C-14.1138 0.264051 -19.0908 0.00205078 -38.2668 0.00905078L-62.5758 0.0180508L-67.9038 13.7591C-72.4158 25.396 -77.7828 37.1621 -75.5408 30.5001C-75.1708 29.4001 -74.4958 27.3751 -74.0418 26.0001C-73.5878 24.6251 -71.2248 18.2441 -68.7908 11.8191L-64.3658 0.138051L-79.1298 0.0580508L-93.8948 -0.0229492L-97.9798 17.2391ZM273.977 7.25005C269.553 21.1221 264.017 37.5531 260.92 46C259.206 50.675 257.107 56.75 256.255 59.5C254.343 65.673 246.146 88.7711 244.899 91.5001C240.244 101.682 230.665 129.772 231.426 131.004C231.722 131.482 233.379 132.579 235.109 133.442C237.99 134.88 238.408 134.872 240.089 133.351C242.094 131.537 242.671 132.853 240.724 134.8C239.215 136.309 240.735 138.035 243.775 138.264C244.957 138.353 245.924 138.969 245.924 139.633C245.924 140.298 247.162 141.1 248.674 141.417C253.842 142.499 265.419 143.96 268.977 143.98L272.529 144L281.892 124.75C289.826 108.438 295.667 95.8081 302.359 80.5001C303.08 78.8501 304.491 75.291 305.494 72.59C306.497 69.8901 307.477 68.1601 307.673 68.7461C307.868 69.3321 302.439 84.591 295.608 102.656C288.777 120.72 282.585 137.3 281.847 139.5C281.11 141.7 280.112 144.043 279.629 144.706C278.351 146.464 279.679 148 282.478 148C284.641 148 285.857 146.065 293.314 130.75C310.848 94.7401 317.409 80.9081 321.657 71.0001C322.483 69.0751 324.418 64.8 325.959 61.5C327.5 58.2001 332.199 46.9751 336.401 36.555C343.647 18.591 345.824 13.6791 345.894 15.1421C345.941 16.1421 329.749 64.6691 323.418 82.5001C320.294 91.3001 317.374 99.6251 316.93 101C316.486 102.375 315.342 105.3 314.387 107.5C313.433 109.7 310.054 118.925 306.878 128C303.702 137.075 300.388 146.173 299.514 148.218C297.319 153.351 297.436 153.769 301.546 155.487C307.78 158.091 306.337 159.895 318.727 134C322.017 127.125 325.697 119.25 326.905 116.5C328.114 113.75 330.379 108.8 331.939 105.5C333.499 102.2 336.785 95.0001 339.241 89.5001C341.698 84.0001 344.831 77.0251 346.204 74.0001C347.577 70.9751 349.682 66.319 350.881 63.653C352.081 60.987 353.289 59.032 353.566 59.308C353.842 59.585 352.911 62.3421 351.496 65.4351C350.082 68.5291 348.924 71.2201 348.924 71.4161C348.924 71.7491 342.197 86.4631 337.913 95.5001C336.871 97.7001 333.122 106.025 329.584 114C323.338 128.076 320.956 133.303 313.633 149C311.708 153.125 310.277 156.654 310.453 156.841C312.714 159.253 321.025 144.631 337.931 108.5C340.247 103.55 345.663 92.3001 349.966 83.5001C354.27 74.7001 359.893 62.3251 362.462 56C365.031 49.675 367.941 42.7001 368.928 40.5C369.915 38.3 372.808 31.1001 375.358 24.5001C377.907 17.9001 380.428 11.7191 380.959 10.7641C381.49 9.80905 381.924 8.60005 381.924 8.07905C381.924 6.34505 383.971 1.71405 384.503 2.24605C385.517 3.26005 380.341 29.0661 371.415 67.5001C366.279 89.6121 362.104 101.022 359.169 100.968C357.589 100.939 357.606 100.799 359.351 99.479C360.411 98.677 361.064 97.8061 360.802 97.5451C360.191 96.9341 349.838 105.403 348.692 107.45C347.321 109.9 349.324 109.269 352 106.408C353.333 104.983 355.322 103.333 356.42 102.741C358.033 101.873 357.878 102.371 355.615 105.339C352.516 109.402 352.88 111.433 356.582 110.725C358.807 110.3 358.963 110.518 358.489 113.381C357.697 118.156 350.911 140.335 348.391 146.386C346.828 150.139 350.144 147.465 352.642 142.959C354.854 138.967 355.062 138.815 354.625 141.5L354.137 144.5L355.78 142.001C358.972 137.15 364.468 133.028 370.66 130.842C374.105 129.625 376.924 128.263 376.924 127.815C376.924 126.723 377.084 126.693 369.279 129.215C365.509 130.434 361.833 131.45 361.111 131.473C360.389 131.497 358.936 132.637 357.883 134.008C355.642 136.925 355.205 134.915 357.229 131C357.939 129.625 360.052 124.675 361.924 120C363.796 115.325 365.909 110.375 366.619 109L367.912 106.5L367.935 109C367.957 111.432 368.014 111.412 370.039 108.25C371.184 106.462 372.553 105 373.081 105C373.61 105 373.764 105.45 373.424 106C373.084 106.55 373.283 107 373.865 107C374.447 107 374.924 106.341 374.924 105.535C374.924 104.73 375.824 103.589 376.924 103C379.39 101.68 379.549 102.769 377.174 104.708C375.626 105.972 376.088 106.07 381.174 105.56C384.337 105.242 386.924 105.356 386.924 105.813C386.924 106.27 386.28 108.636 385.493 111.072C384.705 113.507 383.343 118.088 382.465 121.25C381.315 125.391 380.386 127.004 379.146 127.015C377.809 127.027 377.725 127.221 378.77 127.883C379.853 128.57 379.302 131.249 375.945 141.618C373.651 148.703 371.203 155.4 370.504 156.5C368.555 159.571 369.538 161.097 372.693 159.898C375.304 158.905 375.311 158.915 373.465 160.955C372.44 162.087 371.112 163.862 370.513 164.9C365.441 173.683 351.584 186.931 341.853 192.299C337.03 194.959 339.558 196.669 349.159 197.239C357.519 197.735 359.181 197.308 355.668 195.566C351.851 193.674 352.214 189.635 356.498 186.339C358.527 184.777 361.65 182.263 363.438 180.75C367.074 177.673 368.42 177.265 367.562 179.5C367.246 180.325 367.366 181 367.83 181C368.294 181 368.952 179.608 369.293 177.906C369.877 174.983 375.724 168 377.587 168C378.062 168 379.005 170.363 379.683 173.25C381.666 181.702 386.742 190.633 392.61 195.996C418.751 219.887 459.523 205.879 465.909 170.813C467.083 164.368 467.212 164.159 469.491 165.026C474.736 167.02 479.576 169.977 482.316 172.862C484.91 175.592 485.144 176.377 484.585 180.456C483.462 188.649 476.944 198.833 470.678 202.188C468.888 203.146 464.499 205.328 460.924 207.038C457.349 208.747 453.6 210.59 452.592 211.133C449.4 212.852 432.774 214.237 423.159 213.586C415.492 213.066 404.089 210.656 389.018 206.369C384.197 204.998 387.946 207.846 393.186 209.536C396.067 210.465 398.874 211.779 399.424 212.456C399.974 213.134 402.079 213.997 404.101 214.375C406.124 214.754 407.932 215.525 408.121 216.09C408.499 217.224 447.315 217.514 454.502 216.436C456.959 216.068 459.571 216.276 460.81 216.939C462.658 217.928 462.924 217.799 462.924 215.919C462.924 214.233 463.374 213.884 464.998 214.309C466.267 214.641 467.787 214.137 468.912 213.012C470.411 211.513 471.464 211.326 474.588 212.004C478.249 212.797 478.321 212.765 476.174 211.296C472.792 208.981 473.386 208.298 479.438 207.542C482.47 207.163 484.693 206.436 484.378 205.926C484.064 205.417 484.62 204.923 485.615 204.829C486.61 204.735 488.099 204.558 488.924 204.435C489.749 204.313 491.463 204.165 492.733 204.106C495.787 203.966 494.51 202 491.365 202C490.022 202 488.924 201.595 488.924 201.101C488.924 200.068 496.357 196 498.243 196C500.391 196 507.065 192.205 506.036 191.569C505.501 191.238 504.78 191.425 504.434 191.984C503.629 193.286 499.924 193.315 499.924 192.019C499.924 191.48 501.161 190.777 502.674 190.459C504.187 190.14 506.163 189.483 507.066 188.998C507.969 188.514 508.917 188.326 509.172 188.581C510.622 190.032 496.736 225.47 487.561 243.73C485.011 248.807 482.924 253.194 482.924 253.48C482.924 253.766 504.749 254 531.424 254H579.924V127V5.07813e-05H492.485H405.047L404.362 4.75005C403.985 7.36205 402.829 14.4501 401.793 20.5001C400.757 26.5501 398.786 38.7001 397.413 47.5C393.096 75.166 390.7 88.7441 389.908 90.0251C389.487 90.7071 386.956 91.6171 384.283 92.0491C381.611 92.4811 378.565 93.1721 377.515 93.5851C375.814 94.2541 375.676 93.9921 376.24 91.1681C376.589 89.4261 376.491 88.0001 376.024 88.0001C375.557 88.0001 374.904 89.3501 374.574 91.0001C374.244 92.6501 373.465 94.0001 372.842 94.0001C372.159 94.0001 371.993 93.3061 372.423 92.2501C372.815 91.2881 373.805 88.5881 374.624 86.2501C375.442 83.9131 376.745 82.0001 377.518 82.0001C378.291 82.0001 378.924 81.5231 378.924 80.9411C378.924 80.3591 378.416 80.1961 377.794 80.5801C377.102 81.0081 376.86 80.7401 377.169 79.8891C377.447 79.1251 378.19 78.6161 378.82 78.7571C379.582 78.9281 379.742 78.1251 379.299 76.3581C378.852 74.5761 378.987 73.9211 379.709 74.3671C380.301 74.733 381.049 74.6061 381.371 74.0851C381.693 73.564 381.477 72.8421 380.892 72.4801C380.151 72.0221 380.184 71.3921 380.998 70.4111C381.642 69.6351 381.819 69.0001 381.391 69.0001C380.964 69.0001 381.415 68.1151 382.394 67.0331C383.373 65.951 384.174 63.9261 384.174 62.5331C384.174 61.14 384.616 60 385.156 60C385.696 60 385.9 59.3801 385.609 58.6221C385.318 57.8641 385.453 56.8511 385.909 56.3721C386.92 55.3081 389.425 47.314 396.524 22.5001C399.513 12.0501 402.207 2.71305 402.509 1.75005C403.029 0.0960507 399.583 5.07813e-05 339.674 5.07813e-05H276.289L273.977 7.25005ZM5.38319 11.0671C5.02019 11.6531 4.9382 12.3481 5.2002 12.6101C5.46219 12.8721 5.94319 12.3921 6.2692 11.5431C6.94519 9.78105 6.36919 9.47105 5.38319 11.0671ZM83.4242 11.0001C83.0842 11.5501 83.2832 12.0001 83.8652 12.0001C84.4472 12.0001 84.9242 11.5501 84.9242 11.0001C84.9242 10.4501 84.7262 10.0001 84.4832 10.0001C84.2402 10.0001 83.7642 10.4501 83.4242 11.0001ZM88.5622 13.5001C88.8792 14.3251 89.3152 15.0001 89.5312 15.0001C89.7472 15.0001 89.9242 14.3251 89.9242 13.5001C89.9242 12.6751 89.4882 12.0001 88.9552 12.0001C88.4232 12.0001 88.2462 12.6751 88.5622 13.5001ZM87.4882 16.2931C87.8642 17.2791 88.4232 17.8341 88.7312 17.5261C89.0392 17.2191 88.7322 16.4121 88.0482 15.7331C87.0602 14.753 86.9462 14.8681 87.4882 16.2931ZM105.393 19.5001C105.135 20.3251 104.704 21.6981 104.435 22.5521C104.167 23.4061 104.338 23.8621 104.816 23.5671C105.294 23.2711 105.902 21.8981 106.166 20.5151C106.688 17.7821 106.15 17.0751 105.393 19.5001ZM255.424 24.0001C255.084 24.5501 255.283 25.0001 255.865 25.0001C256.447 25.0001 256.924 24.5501 256.924 24.0001C256.924 23.4501 256.726 23.0001 256.483 23.0001C256.24 23.0001 255.764 23.4501 255.424 24.0001ZM83.5912 24.6671C83.2242 25.0331 82.9242 25.7981 82.9242 26.3671C82.9242 26.9931 83.3902 26.9341 84.1072 26.2171C84.7582 25.5661 85.0582 24.8011 84.7742 24.5171C84.4902 24.2331 83.9572 24.3001 83.5912 24.6671ZM86.3832 25.0671C86.0202 25.6531 85.9382 26.3481 86.2002 26.6101C86.4622 26.8721 86.9432 26.3921 87.2692 25.5431C87.9452 23.7811 87.3692 23.4711 86.3832 25.0671ZM144.242 27.2501C143.732 27.9381 142.752 29.8131 142.064 31.4181C140.948 34.0241 140.98 34.1981 142.369 33.0461C143.224 32.3361 143.924 31.0001 143.924 30.0781C143.924 29.1551 144.464 27.8601 145.124 27.2001C145.784 26.5401 146.064 26.0001 145.746 26.0001C145.429 26.0001 144.752 26.5631 144.242 27.2501ZM-99.3808 42.23C-104.638 69.092 -108.71 97.4701 -107.906 101.646C-107.62 103.128 -107.1 102.774 -105.312 99.8821C-103.782 97.4071 -103.076 94.6941 -103.076 91.2931C-103.076 88.5591 -101.48 73.596 -99.5278 58.042C-97.5768 42.488 -96.1618 29.5811 -96.3818 29.3601C-96.6028 29.1401 -97.9518 34.931 -99.3808 42.23ZM252.591 29.6671C252.224 30.0331 251.924 30.7981 251.924 31.3671C251.924 31.9931 252.39 31.9341 253.107 31.2171C253.758 30.5661 254.058 29.8011 253.774 29.5171C253.49 29.2331 252.957 29.3001 252.591 29.6671ZM81.1932 31.3731C80.8752 31.8881 81.1022 32.008 81.6972 31.6401C82.2932 31.2721 83.0682 31.8771 83.4192 32.9851C84.0742 35.049 85.9242 35.798 85.9242 34C85.9242 33.4501 85.4192 33 84.8022 33C84.0072 33 84.0292 32.5791 84.8772 31.5561C85.8612 30.3701 85.6912 30.1421 83.9242 30.2751C82.7402 30.3641 81.5122 30.8581 81.1932 31.3731ZM461.602 31.7121C461.315 32.1771 460.118 36.323 458.943 40.926C456.661 49.863 448.158 73.0681 443.034 84.3431C438.747 93.7751 438.859 94.953 443.97 94.2671C446.892 93.8751 447.934 94.0681 447.72 94.9631C447.546 95.691 448.706 96.3561 450.54 96.5771C454.661 97.0751 456.561 94.8201 457.343 88.5001C457.684 85.7501 458.204 81.7001 458.5 79.5001C459.392 72.8611 462.751 31.5241 462.426 31.1831C462.26 31.0091 461.889 31.2471 461.602 31.7121ZM101.027 34.25C100.56 35.487 99.8442 38.0751 99.4342 40C99.0242 41.925 98.4322 43.931 98.1192 44.458C97.8062 44.9841 97.3762 46.5591 97.1642 47.958C96.5452 52.05 96.2402 53.4081 95.5822 55C95.2422 55.8251 94.8422 58.5251 94.6932 61C94.4582 64.9311 94.6932 65.5381 96.5522 65.8041C98.4452 66.0741 98.7632 65.465 99.4292 60.3041C99.8412 57.112 100.334 52.475 100.526 50C100.952 44.501 101.46 40.668 102.417 35.75C103.22 31.625 102.364 30.702 101.027 34.25ZM513.567 48.544C509.392 66.843 506.503 77.6541 501.423 94.0001C498.099 104.693 498.164 106.956 501.796 107.035C502.692 107.055 504.549 107.749 505.924 108.577C507.845 109.735 507.961 109.97 506.424 109.595C498.078 107.557 496.999 107.665 495.936 110.642C490.812 124.989 484.3 141 483.588 141C483.105 141 483.057 140.212 483.482 139.25C485.494 134.688 493.87 109.285 493.895 107.667C493.955 103.859 491.601 106.85 488.49 114.535C483.483 126.903 478.759 136.99 475.189 142.941C473.393 145.934 471.924 148.966 471.924 149.679C471.924 151.559 478.878 155.657 484.009 156.801C487.344 157.545 487.752 157.812 485.674 157.893C484.161 157.952 482.924 158.375 482.924 158.833C482.924 159.989 494.784 166 497.064 166C498.087 166 498.924 166.459 498.924 167.019C498.924 167.607 497.866 167.772 496.424 167.411C492.17 166.343 493.66 168.292 501.081 173.5C506.365 177.209 507.717 178.59 506.314 178.847C503.155 179.427 502.27 181 505.103 181C507.873 181 509.264 178.718 510.996 171.335C513.087 162.418 516.619 134.498 517.363 121C517.621 116.325 518.313 106.473 518.902 99.1071C519.49 91.7411 519.758 85.5011 519.497 85.2391C518.558 84.3 514.654 111.754 515.526 113.165C515.84 113.673 515.653 114.63 515.112 115.294C514.57 115.957 513.17 121.225 512 127C508.448 144.524 503.679 163 502.707 163C502.202 163 502.032 162.212 502.328 161.25C504.659 153.679 511.521 118.787 511.816 113C511.859 112.175 512.536 106.775 513.322 101C515.514 84.8831 518.076 49.4901 517.732 40.07L517.424 31.6401L513.567 48.544ZM81.9242 36.833C81.9242 37.292 82.5992 37.667 83.4242 37.667C84.2492 37.667 84.9242 37.292 84.9242 36.833C84.9242 36.375 84.2492 36 83.4242 36C82.5992 36 81.9242 36.375 81.9242 36.833ZM109.107 45.25C106.69 55.4621 105.955 58.941 105.217 63.683C104.786 66.4481 104.975 66.8001 106.656 66.3601C107.72 66.0821 108.628 65.3241 108.674 64.6771C109.097 58.6641 110.089 49.5401 110.37 49.077C110.906 48.1931 112.137 36 111.69 36C111.473 36 110.311 40.163 109.107 45.25ZM71.9242 38.059C71.9242 38.641 72.3742 38.84 72.9242 38.5C73.4742 38.16 73.9242 37.6841 73.9242 37.4411C73.9242 37.1981 73.4742 37 72.9242 37C72.3742 37 71.9242 37.477 71.9242 38.059ZM79.0532 40.647C79.0542 42.216 78.8332 44.9621 78.5622 46.75C78.2872 48.5681 78.5082 50 79.0642 50C79.6402 50 79.7592 49.055 79.3472 47.758C78.7042 45.733 78.8012 45.653 80.3442 46.934C81.4672 47.865 81.8532 49.149 81.4692 50.676C81.1482 51.954 81.2952 53 81.7962 53C82.2962 53 82.8832 51.476 83.1012 49.614C83.3722 47.29 83.1242 46.37 82.3112 46.682C81.6592 46.932 80.8292 46.6561 80.4662 46.0681C80.0762 45.4361 80.6902 45 81.9722 45C83.4012 45 83.9582 44.5311 83.6092 43.6221C83.3182 42.8641 83.6082 41.712 84.2522 41.063C85.1512 40.1571 85.0032 40.042 83.6172 40.57C82.5632 40.9711 82.0422 41.8651 82.3672 42.7131C82.6892 43.5511 82.4352 44.004 81.7662 43.781C81.1292 43.568 80.4432 42.32 80.2432 41.008C79.7142 37.541 79.0522 37.34 79.0532 40.647ZM74.0822 41C74.0822 42.375 74.3092 42.938 74.5862 42.25C74.8642 41.563 74.8642 40.438 74.5862 39.75C74.3092 39.063 74.0822 39.625 74.0822 41ZM247.424 40C247.084 40.55 247.283 41 247.865 41C248.447 41 248.924 40.55 248.924 40C248.924 39.4501 248.726 39 248.483 39C248.24 39 247.764 39.4501 247.424 40ZM135.748 43.75C134.09 45.703 128.924 56.5121 128.924 58.0271C128.924 58.562 128.447 59 127.865 59C127.283 59 127.102 59.4781 127.463 60.063C127.824 60.648 127.464 61.885 126.663 62.813C125.862 63.7411 124.96 65.5131 124.659 66.7501C124.208 68.604 124.528 69.0001 126.479 69.0001C128.427 69.0001 129.04 68.2471 129.935 64.7501C130.533 62.4131 131.293 59.8251 131.624 59C131.955 58.175 132.335 56.995 132.468 56.377C132.601 55.759 133.385 53.734 134.21 51.877C136.799 46.0471 138.144 42 137.491 42C137.349 42 136.565 42.788 135.748 43.75ZM68.8882 45.1641C67.7432 47.3971 67.7702 47.424 69.4982 45.774C70.4922 44.824 71.0312 43.773 70.6952 43.438C70.3602 43.1031 69.5472 43.8801 68.8882 45.1641ZM227.439 47.7191L225.683 50.5L227.998 48.278C229.271 47.056 230.061 45.8041 229.754 45.4971C229.446 45.1891 228.405 46.1891 227.439 47.7191ZM244.488 46.7071C243.946 48.132 244.06 48.247 245.048 47.267C245.732 46.588 246.039 45.781 245.731 45.474C245.423 45.166 244.864 45.7211 244.488 46.7071ZM144.565 47.8451C143.118 49.4431 132.972 68.8521 132.939 70.0831C132.931 70.4041 133.487 70.6801 134.174 70.6961C134.862 70.7131 140.967 72.1821 147.742 73.9621C154.517 75.7411 160.167 77.0401 160.297 76.8491C160.428 76.6571 161.571 71.347 162.838 65.048C164.105 58.7491 165.368 53.007 165.644 52.287C165.98 51.412 165.609 51.184 164.528 51.599C163.637 51.94 161.811 51.5 160.469 50.621C159.127 49.742 157.324 49.293 156.464 49.6231C155.603 49.9531 154.342 49.7891 153.661 49.257C152.981 48.725 150.998 47.8111 149.256 47.2261C146.645 46.3481 145.82 46.4571 144.565 47.8451ZM159.424 48C159.764 48.55 160.24 49 160.483 49C160.726 49 160.924 48.55 160.924 48C160.924 47.4501 160.447 47 159.865 47C159.283 47 159.084 47.4501 159.424 48ZM75.9392 50.75C75.9312 52.538 76.0972 54 76.3072 54C77.2172 54 77.6032 50.1021 76.8172 48.861C76.2312 47.9361 75.9502 48.5401 75.9392 50.75ZM241.924 51.059C241.924 51.641 242.374 51.84 242.924 51.5C243.474 51.16 243.924 50.6841 243.924 50.4411C243.924 50.1981 243.474 50 242.924 50C242.374 50 241.924 50.477 241.924 51.059ZM356.424 51C356.084 51.55 356.283 52 356.865 52C357.447 52 357.924 51.55 357.924 51C357.924 50.4501 357.726 50 357.483 50C357.24 50 356.764 50.4501 356.424 51ZM78.4242 52C78.0842 52.55 78.2832 53 78.8652 53C79.4472 53 79.9242 52.55 79.9242 52C79.9242 51.4501 79.7262 51 79.4832 51C79.2402 51 78.7642 51.4501 78.4242 52ZM221.028 56.535C218.123 59.843 216.702 63.8731 218.924 62.5C219.474 62.16 219.924 61.4281 219.924 60.8741C219.924 60.32 221.102 58.322 222.543 56.433C225.961 51.952 224.995 52.016 221.028 56.535ZM81.0922 55.128C81.0002 56.023 79.9122 57.4991 78.6742 58.4071L76.4242 60.058L78.6742 58.994C81.0902 57.851 81.6782 58.8461 79.7342 60.7901C77.7762 62.7481 77.9252 65.0001 80.0122 65.0001C81.0642 65.0001 81.9242 64.523 81.9242 63.9411C81.9242 63.3591 81.4742 63.16 80.9242 63.5C80.3742 63.84 79.9242 63.679 79.9242 63.142C79.9242 62.606 80.4072 62.006 80.9982 61.809C81.6182 61.602 81.9002 59.773 81.6662 57.475C81.4432 55.289 81.1852 54.233 81.0922 55.128ZM354.488 55.7071C353.946 57.132 354.06 57.247 355.048 56.267C355.732 55.588 356.039 54.781 355.731 54.474C355.423 54.166 354.864 54.7211 354.488 55.7071ZM76.4242 56C76.7642 56.55 77.2402 57 77.4832 57C77.7262 57 77.9242 56.55 77.9242 56C77.9242 55.4501 77.4472 55 76.8652 55C76.2832 55 76.0842 55.4501 76.4242 56ZM238.924 57.059C238.924 57.641 239.374 57.84 239.924 57.5C240.474 57.16 240.924 56.6841 240.924 56.4411C240.924 56.1981 240.474 56 239.924 56C239.374 56 238.924 56.477 238.924 57.059ZM63.1192 61.5C63.1392 63.1501 63.3632 63.704 63.6172 62.731C63.8712 61.758 63.8542 60.408 63.5802 59.731C63.3062 59.0541 63.0992 59.85 63.1192 61.5ZM73.3912 61.274C73.0782 62.524 73.2272 64.6451 73.7232 65.9871C74.4652 67.9921 74.6082 67.5861 74.5252 63.7131C74.4122 58.4181 74.2152 57.994 73.3912 61.274ZM235.924 62C235.924 62.55 236.374 63 236.924 63C237.474 63 237.924 62.55 237.924 62C237.924 61.4501 237.474 61 236.924 61C236.374 61 235.924 61.4501 235.924 62ZM76.0032 63.583C76.0512 64.748 76.2882 64.9851 76.6072 64.1881C76.8962 63.4661 76.8602 62.6031 76.5282 62.271C76.1962 61.939 75.9602 62.529 76.0032 63.583ZM434.02 65.2501C433.551 66.4871 432.187 70.9921 430.99 75.2591C429.794 79.5261 428.138 84.637 427.311 86.6171C425.987 89.785 426.043 92.2141 427.409 90.8491C427.855 90.4021 432.391 75.5201 434.753 66.7501C435.859 62.6441 435.381 61.6661 434.02 65.2501ZM68.1192 66.5001C68.1392 68.1501 68.3632 68.7041 68.6172 67.7311C68.8712 66.7581 68.8542 65.4081 68.5802 64.7311C68.3062 64.0541 68.0992 64.8501 68.1192 66.5001ZM186.038 71.2501C180.424 83.4781 179.911 84.8741 180.827 85.4401C181.314 85.7411 182.472 84.0771 183.4 81.7441C184.329 79.4101 185.698 76.1501 186.444 74.5001C189.439 67.8701 190.785 64.0001 190.094 64.0001C189.694 64.0001 187.869 67.2631 186.038 71.2501ZM308.591 64.6671C308.224 65.0331 307.924 65.798 307.924 66.3671C307.924 66.993 308.39 66.9341 309.107 66.2171C309.758 65.5661 310.058 64.801 309.774 64.5171C309.49 64.2331 308.957 64.3001 308.591 64.6671ZM165.637 71.6801C164.655 75.4251 164.264 78.7401 164.747 79.2231C165.231 79.7071 166.252 76.771 167.07 72.5431C167.873 68.3941 168.274 65.0001 167.96 65.0001C167.646 65.0001 166.6 68.0061 165.637 71.6801ZM233.488 67.7071C232.946 69.1321 233.06 69.2471 234.048 68.2671C234.732 67.5881 235.039 66.7811 234.731 66.4741C234.423 66.1661 233.864 66.7211 233.488 67.7071ZM78.4822 69.6621C77.3762 70.9531 75.9972 71.5821 75.0602 71.2221C73.6742 70.6901 73.6622 70.8061 74.9572 72.2111C75.7642 73.0871 76.5832 73.37 76.7782 72.84C76.9722 72.3111 77.9292 72.6001 78.9042 73.4821C81.0422 75.4161 81.9392 73.8971 80.9612 70.0001L80.3332 67.5001L78.4822 69.6621ZM93.3122 68.7821C92.7012 69.177 92.0012 70.8971 91.7572 72.6061C91.3932 75.1531 91.6192 75.6311 93.0162 75.2661C93.9532 75.021 95.6662 75.326 96.8222 75.9451C98.8012 77.0051 98.9242 76.828 98.9242 72.9191C98.9242 69.2931 98.6772 68.8311 96.9722 69.2771C95.8982 69.5581 94.8862 69.4001 94.7222 68.9261C94.5582 68.4521 93.9242 68.3871 93.3122 68.7821ZM103.27 73.0001C102.206 76.9831 102.214 77.0001 105.063 77.0001C107.734 77.0001 107.924 76.7351 107.924 73.0001C107.924 69.8201 107.556 69.0001 106.131 69.0001C104.883 69.0001 104.012 70.2171 103.27 73.0001ZM78.4242 72.0001C78.7642 72.5501 79.2402 73.0001 79.4832 73.0001C79.7262 73.0001 79.9242 72.5501 79.9242 72.0001C79.9242 71.4501 79.4472 71.0001 78.8652 71.0001C78.2832 71.0001 78.0842 71.4501 78.4242 72.0001ZM95.3832 72.0671C95.0202 72.6531 94.9382 73.3481 95.2002 73.6101C95.4622 73.8721 95.9432 73.3921 96.2692 72.5431C96.9452 70.7811 96.3692 70.4711 95.3832 72.0671ZM121.797 73.8331C120.559 77.0891 121.343 79.0001 123.918 79.0001C125.399 79.0001 126.14 78.1681 126.569 76.0241C127.294 72.3991 126.961 71.6321 124.588 71.4571C123.474 71.3751 122.377 72.3101 121.797 73.8331ZM-75.5048 79.9661C-79.7638 93.4471 -84.2298 110.965 -83.8728 112.788C-83.3838 115.289 -78.4458 100.813 -76.6118 91.5001C-75.7458 87.1001 -74.3868 81.0461 -73.5928 78.0471C-71.3548 69.591 -72.6328 70.8741 -75.5048 79.9661ZM217.924 72.6331C217.924 73.7851 222.905 78.3521 223.506 77.7511C223.725 77.5331 222.558 76.065 220.914 74.4901C219.269 72.9151 217.924 72.0791 217.924 72.6331ZM479.567 73.1071C478.243 77.6681 473.902 96.7381 473.912 97.9501C473.92 98.928 474.253 99.0711 474.936 98.3881C476.094 97.2301 481.221 72.9641 480.467 72.2101C480.194 71.937 479.789 72.3411 479.567 73.1071ZM131.174 73.6791C130.487 73.9471 129.924 75.0031 129.924 76.0241C129.924 77.0461 129.467 78.1651 128.908 78.5101C127.296 79.5061 128.813 81.0001 131.436 81.0001C133.719 81.0001 135.441 81.563 142.575 84.6411C144.308 85.3881 146.419 86.0001 147.266 86.0001C148.977 86.0001 150.46 87.7971 149.523 88.7351C149.192 89.0661 147.909 88.8511 146.672 88.2591C142.921 86.4611 140.775 85.9501 141.431 87.0111C141.767 87.5551 142.803 88.0331 143.733 88.0731C144.663 88.1131 146.774 88.9881 148.424 90.0171C155.671 94.537 158.933 95.8521 158.916 94.2501C158.907 93.3521 154.064 91.0001 152.225 91.0001C151.509 91.0001 150.924 90.3251 150.924 89.5001C150.924 88.6751 151.128 88.0001 151.377 88.0001C152.394 88.0001 157.466 90.5191 158.028 91.3021C158.36 91.7661 158.933 89.5831 159.301 86.4521C159.959 80.8541 158.841 77.3151 156.811 78.5701C156.323 78.8711 155.369 78.7751 154.692 78.3561C154.014 77.9371 152.776 77.5241 151.942 77.4381C151.107 77.3511 147.724 76.5641 144.424 75.6881C136.843 73.6761 132.765 73.0581 131.174 73.6791ZM75.9242 77.2801C75.9242 79.3481 75.9492 79.3511 77.5062 77.4411C78.7922 75.8631 78.9882 75.817 78.5572 77.1991C78.1772 78.414 78.4582 78.7321 79.5422 78.3161C80.6082 77.9071 80.7442 77.4201 80.0012 76.6771C78.0762 74.7521 75.9242 75.0701 75.9242 77.2801ZM203.876 80.7921C192.816 96.2271 185.665 107.074 186.197 107.607C186.805 108.215 192.913 101.887 192.919 100.643C192.923 99.8871 194.57 97.6031 202.873 86.8421C204.001 85.3801 204.924 83.7531 204.924 83.2271C204.924 82.7001 205.832 81.1151 206.942 79.7051C208.051 78.2941 208.575 76.9021 208.105 76.6121C207.635 76.3211 205.732 78.2021 203.876 80.7921ZM70.4242 79.0001C70.7642 79.5501 71.2402 80.0001 71.4832 80.0001C71.7262 80.0001 71.9242 79.5501 71.9242 79.0001C71.9242 78.4501 71.4472 78.0001 70.8652 78.0001C70.2832 78.0001 70.0842 78.4501 70.4242 79.0001ZM91.6742 78.6621C92.3622 78.9401 93.4872 78.9401 94.1742 78.6621C94.8622 78.3851 94.2992 78.1581 92.9242 78.1581C91.5492 78.1581 90.9872 78.3851 91.6742 78.6621ZM103.452 78.9661C101.7 79.6021 101.784 79.7401 104.202 80.2021C105.699 80.4881 106.924 80.3621 106.924 79.9201C106.924 78.59 105.538 78.2091 103.452 78.9661ZM119.499 80.8791C119.189 81.3801 119.608 82.048 120.43 82.3641C121.252 82.6791 121.924 82.5281 121.924 82.0281C121.924 80.6721 120.147 79.83 119.499 80.8791ZM162.259 86.5161C161.474 90.8471 161.545 92.2711 162.591 93.1391C163.608 93.9831 163.924 93.8611 163.924 92.6221C163.924 91.7301 163.994 90.7861 164.079 90.5241C164.164 90.2611 164.543 88.0111 164.92 85.5241C165.944 78.7811 163.495 79.6941 162.259 86.5161ZM90.6742 82.6621C91.3622 82.9401 92.4872 82.9401 93.1742 82.6621C93.8622 82.3851 93.2992 82.1581 91.9242 82.1581C90.5492 82.1581 89.9872 82.3851 90.6742 82.6621ZM129.657 83.1241C130.336 83.8081 131.143 84.1151 131.45 83.8071C131.758 83.4991 131.203 82.9401 130.217 82.5641C128.792 82.0221 128.677 82.1361 129.657 83.1241ZM70.7372 83.6831C71.4582 83.9721 72.3212 83.9361 72.6532 83.604C72.9852 83.272 72.3952 83.0361 71.3412 83.0791C70.1762 83.1271 69.9392 83.3641 70.7372 83.6831ZM136.424 85.0001C136.764 85.5501 137.492 86.0001 138.042 86.0001C138.592 86.0001 138.764 85.5501 138.424 85.0001C138.084 84.4501 137.356 84.0001 136.806 84.0001C136.256 84.0001 136.084 84.4501 136.424 85.0001ZM460.06 90.1681C459.985 91.0861 459.633 92.6611 459.277 93.6681C458.777 95.0821 458.911 95.2411 459.861 94.3651C460.539 93.7411 460.892 92.1661 460.645 90.8651C460.398 89.564 460.135 89.2511 460.06 90.1681ZM496.337 94.5531C494.399 99.1931 493.326 104.841 494.638 103.5C495.72 102.394 499.056 91.0001 498.298 91.0001C498.036 91.0001 497.154 92.5991 496.337 94.5531ZM383.989 95.4211C383.021 96.5881 383.181 96.7461 384.882 96.3011C387.384 95.6461 388.617 94.0001 386.605 94.0001C385.815 94.0001 384.638 94.6401 383.989 95.4211ZM161.209 96.354C161.754 97.9891 163.924 98.3051 163.924 96.7501C163.924 95.9711 163.237 95.3331 162.396 95.3331C161.556 95.3331 161.022 95.7931 161.209 96.354ZM217.591 95.6671C217.224 96.0331 216.924 96.798 216.924 97.3671C216.924 97.993 217.39 97.9341 218.107 97.2171C218.758 96.5661 219.058 95.801 218.774 95.5171C218.49 95.2331 217.957 95.3001 217.591 95.6671ZM378.424 97.0001C378.084 97.5501 378.733 98.0001 379.865 98.0001C380.997 98.0001 381.924 97.5501 381.924 97.0001C381.924 96.4501 381.276 96.0001 380.483 96.0001C379.69 96.0001 378.764 96.4501 378.424 97.0001ZM442.613 97.1141C441.617 97.6931 440.184 97.9301 439.428 97.6401C437.852 97.035 425.394 121.177 426.2 123.276C426.469 123.977 431.333 125.347 437.337 126.414C443.199 127.455 448.231 128.688 448.519 129.154C449.231 130.306 448.812 130.262 437.577 127.991C432.162 126.896 426.882 126 425.844 126C424.58 126 423.061 127.732 421.241 131.25C419.747 134.137 418.614 136.837 418.724 137.25C418.834 137.662 418.024 138.9 416.924 140C413.839 143.085 414.485 144.21 418.402 142.574C420.315 141.774 422.122 141.511 422.418 141.99C422.713 142.468 427.335 142.881 432.689 142.909C438.043 142.936 444.297 143.238 446.585 143.579C451.542 144.319 452.663 142.945 453.309 135.34C453.535 132.678 453.965 129.825 454.264 129C455.415 125.825 459.14 101.882 458.571 101.314C457.817 100.56 457.599 101.278 454.865 113.5C452.219 125.331 451.1 124.75 453.355 112.716C454.218 108.111 454.924 103.11 454.924 101.601C454.924 98.8891 454.858 98.8611 448.931 99.1031C445.635 99.2381 442.635 99.0441 442.265 98.6741C441.894 98.3031 442.341 98.0001 443.257 98.0001C444.174 98.0001 444.924 97.5501 444.924 97.0001C444.924 95.7901 444.886 95.7921 442.613 97.1141ZM110.477 99.9151C110.108 100.512 110.06 101.412 110.371 101.915C110.682 102.418 110.453 102.99 109.861 103.188C109.27 103.385 108.693 105.197 108.579 107.215C108.466 109.234 108.088 111.17 107.74 111.518C107.392 111.866 107.516 113.576 108.015 115.319C108.515 117.061 108.924 119.664 108.924 121.103C108.924 127.649 119.185 141.102 126.061 143.569C127.7 144.157 129.002 145.029 128.955 145.507C128.908 145.984 129.444 146.463 130.147 146.572C130.849 146.68 133.249 147.264 135.48 147.871C141.346 149.464 155.18 147.984 157.963 145.464C158.853 144.659 160.334 144 161.253 144C162.172 144 162.812 143.662 162.674 143.25C162.537 142.838 162.706 142.5 163.051 142.5C164.03 142.5 173.924 131.871 173.924 130.82C173.924 130.304 174.369 130.157 174.913 130.493C175.479 130.843 175.647 130.442 175.306 129.552C174.966 128.668 175.239 128 175.939 128C176.791 128 176.668 127.311 175.536 125.75C174.638 124.513 173.466 122.479 172.932 121.232C172.076 119.234 168.384 117 165.938 117C165.468 117 164.775 118.401 164.399 120.112C163.534 124.054 157.698 130.565 152.782 133.072C147.963 135.531 139.751 135.559 134.415 133.135C129.512 130.907 124.554 125.44 122.904 120.44C121.545 116.323 122.097 105.701 123.775 103.679C124.344 102.994 124.498 101.94 124.117 101.337C123.127 99.7701 111.326 98.5401 110.477 99.9151ZM373.924 99.9691C373.924 100.501 374.599 100.678 375.424 100.362C376.249 100.045 376.924 99.6091 376.924 99.3931C376.924 99.177 376.249 99.0001 375.424 99.0001C374.599 99.0001 373.924 99.4361 373.924 99.9691ZM422.418 102.25C422.175 102.938 420.379 107.727 418.427 112.894C413.5 125.941 414.746 126.416 420.018 113.5C421.441 110.012 423.836 101 423.339 101C423.076 101 422.662 101.563 422.418 102.25ZM472.084 103.24C471.446 103.878 470.924 104.979 470.924 105.686C470.924 107.819 462.803 132.234 460.795 136.136C459.766 138.136 458.924 140.686 458.924 141.803C458.924 142.92 458.362 144.034 457.674 144.28C455.906 144.911 456.915 145.616 460.585 146.313C463.688 146.903 463.769 146.821 465.069 141.707C465.797 138.843 466.443 136.05 466.505 135.5C466.567 134.95 466.896 133.825 467.236 133C467.735 131.788 472.732 111.931 474.344 104.751C474.839 102.544 473.606 101.718 472.084 103.24ZM131.479 107.299C129.491 111.563 129.213 117.233 130.962 117.835C131.498 118.02 131.734 118.498 131.487 118.898C130.78 120.042 135.324 124.821 138.136 125.891C139.536 126.423 141.524 126.7 142.553 126.506C143.582 126.312 145.662 126.119 147.174 126.077C148.918 126.028 149.924 125.451 149.924 124.5C149.924 123.675 150.351 123 150.872 123C151.394 123 153.082 121.801 154.622 120.336C156.163 118.871 156.749 118.058 155.924 118.528C154.73 119.209 154.649 119.09 155.53 117.942C158.152 114.521 157.742 112.439 154.031 110.329C152.047 109.201 148.671 107.958 146.528 107.566C144.385 107.175 141.685 106.266 140.528 105.546C139.371 104.827 137.299 103.988 135.924 103.683C133.758 103.201 133.164 103.685 131.479 107.299ZM-107.215 109.293C-108.023 111.057 -108.582 114.075 -108.457 116C-108.332 117.925 -108.155 120.625 -108.064 122C-107.853 125.168 -105.243 116.236 -104.762 110.699C-104.337 105.809 -105.353 105.226 -107.215 109.293ZM83.0302 108.203C82.3452 109.298 82.1032 110.488 82.4922 110.847C82.8802 111.206 83.4052 110.919 83.6582 110.208C84.0162 109.205 84.4372 109.181 85.5452 110.101C87.6942 111.884 87.9872 110.79 86.0132 108.355C84.2872 106.226 84.2642 106.225 83.0302 108.203ZM392.993 111.649C392.409 113.767 391.276 117.638 390.475 120.25C389.675 122.862 389.399 125 389.862 125C390.838 125 395.325 109.068 394.564 108.306C394.284 108.027 393.577 109.531 392.993 111.649ZM95.0022 111.854C94.1922 113.368 94.2352 114.061 95.1712 114.6C95.8602 114.996 96.0902 114.952 95.6832 114.502C95.2752 114.052 95.4522 113.069 96.0752 112.318C96.6992 111.566 96.9562 110.699 96.6482 110.39C96.3392 110.081 95.5982 110.74 95.0022 111.854ZM47.4872 113.25C45.4082 120.199 42.8632 147.956 44.8802 141.687C45.3782 140.14 45.6022 137.923 45.3782 136.761C45.1542 135.599 45.3532 134.165 45.8192 133.574C46.2862 132.983 46.6132 131.037 46.5462 129.25C46.4792 127.462 46.8102 126 47.2812 126C47.7522 126 47.8972 125.373 47.6032 124.606C47.3092 123.839 47.4102 120.689 47.8292 117.606C48.5332 112.411 48.3682 110.305 47.4872 113.25ZM366.424 113C366.084 113.55 366.283 114 366.865 114C367.447 114 367.924 113.55 367.924 113C367.924 112.45 367.726 112 367.483 112C367.24 112 366.764 112.45 366.424 113ZM94.9242 117.031C94.9242 117.564 95.5992 118 96.4242 118C97.2492 118 97.9242 117.823 97.9242 117.607C97.9242 117.391 97.2492 116.955 96.4242 116.638C95.5992 116.322 94.9242 116.499 94.9242 117.031ZM85.0822 121C85.0822 122.375 85.3092 122.938 85.5862 122.25C85.8642 121.563 85.8642 120.438 85.5862 119.75C85.3092 119.063 85.0822 119.625 85.0822 121ZM363.591 120.667C363.224 121.033 362.924 121.798 362.924 122.367C362.924 122.993 363.39 122.934 364.107 122.217C364.758 121.566 365.058 120.801 364.774 120.517C364.49 120.233 363.957 120.3 363.591 120.667ZM51.0032 123.583C51.0512 124.748 51.2882 124.985 51.6072 124.188C51.8962 123.466 51.8602 122.603 51.5282 122.271C51.1962 121.939 50.9602 122.529 51.0032 123.583ZM179.954 124.75C179.988 127.905 187.842 137.796 187.894 134.75C187.911 133.787 187.474 133 186.924 133C186.374 133 185.924 132.298 185.924 131.441C185.924 130.584 185.546 130.115 185.085 130.401C184.623 130.686 184.186 129.341 184.113 127.411C183.957 123.259 183.317 122 181.365 122C180.452 122 179.935 123.008 179.954 124.75ZM241.871 127.639C241.319 129.09 241.095 130.504 241.372 130.782C241.825 131.234 242.317 130.18 243.489 126.25C244.198 123.871 242.87 125.011 241.871 127.639ZM361.591 125.667C361.224 126.033 360.924 126.798 360.924 127.367C360.924 127.993 361.39 127.934 362.107 127.217C362.758 126.566 363.058 125.801 362.774 125.517C362.49 125.233 361.957 125.3 361.591 125.667ZM411.45 131.526C409.919 135.129 408.939 138.348 409.272 138.681C409.605 139.014 410.184 138.434 410.559 137.393C410.934 136.352 412.086 133.304 413.119 130.62C415.934 123.307 414.646 124.007 411.45 131.526ZM85.1182 129.456C85.0452 131.405 85.1442 133 85.3382 133C86.0912 133 86.5852 128.07 85.9372 127.02C85.5602 126.411 85.1912 127.507 85.1182 129.456ZM388.107 127.217C387.457 127.868 386.924 128.84 386.924 129.378C386.924 130.627 381.135 146.938 379.875 149.236C378.651 151.471 378.663 153 379.905 153C380.444 153 381.181 151.762 381.541 150.25C381.901 148.738 382.806 146.375 383.551 145C385.137 142.075 390.095 126.838 389.617 126.36C389.437 126.18 388.758 126.566 388.107 127.217ZM247.003 129.583C247.051 130.748 247.288 130.985 247.607 130.188C247.896 129.466 247.86 128.603 247.528 128.271C247.196 127.939 246.96 128.529 247.003 129.583ZM449.924 130C449.924 130.55 450.374 131 450.924 131C451.474 131 451.924 130.55 451.924 130C451.924 129.45 451.474 129 450.924 129C450.374 129 449.924 129.45 449.924 130ZM51.1742 131.662C49.4332 132.365 49.6082 134 51.4242 134C52.2492 134 52.9242 133.325 52.9242 132.5C52.9242 131.675 52.8112 131.036 52.6742 131.079C52.5372 131.122 51.8622 131.385 51.1742 131.662ZM55.9242 134C55.9242 134.55 56.4012 135 56.9832 135C57.5652 135 57.7642 134.55 57.4242 134C57.0842 133.45 56.6082 133 56.3652 133C56.1222 133 55.9242 133.45 55.9242 134ZM195.924 133.76C195.924 134.902 201.052 140.205 201.613 139.644C202.236 139.021 197.816 133 196.736 133C196.289 133 195.924 133.342 195.924 133.76ZM52.7372 136.683C53.4582 136.972 54.3212 136.936 54.6532 136.604C54.9852 136.272 54.3952 136.036 53.3412 136.079C52.1762 136.127 51.9392 136.364 52.7372 136.683ZM59.4242 138.461C60.5242 139.355 61.4242 140.479 61.4242 140.96C61.4242 141.44 61.7622 142.171 62.1742 142.583C62.5862 142.996 62.9242 142.133 62.9242 140.667C62.9242 139.2 62.5112 138 62.0062 138C61.5012 138 60.2632 137.738 59.2562 137.418C57.6292 136.902 57.6482 137.019 59.4242 138.461ZM50.9242 139C49.6422 139.828 49.6782 139.972 51.1742 139.985C52.1372 139.993 52.9242 139.55 52.9242 139C52.9242 137.78 52.8112 137.78 50.9242 139ZM425.924 139C425.924 140.253 426.985 140.253 428.924 139C430.137 138.216 429.993 138.028 428.174 138.015C426.937 138.007 425.924 138.45 425.924 139ZM65.5082 140.641C64.9842 142.008 65.1312 142.073 66.3882 141.03C67.2192 140.34 68.6032 140.046 69.4632 140.377C70.3632 140.722 70.7682 140.557 70.4172 139.989C69.4432 138.413 66.1982 138.844 65.5082 140.641ZM262.003 140.583C262.051 141.748 262.288 141.985 262.607 141.188C262.896 140.466 262.86 139.603 262.528 139.271C262.196 138.939 261.96 139.529 262.003 140.583ZM519.759 147.5C518.327 152.45 515.722 161 513.971 166.5C512.22 172 510.54 177.287 510.239 178.25C509.876 179.408 510.224 180 511.265 180C512.997 180 514.699 174.932 519.935 154.18C523.622 139.568 523.491 134.599 519.759 147.5ZM407.591 140.667C407.224 141.033 406.924 141.798 406.924 142.367C406.924 142.993 407.39 142.934 408.107 142.217C408.758 141.566 409.058 140.801 408.774 140.517C408.49 140.232 407.957 140.3 407.591 140.667ZM-81.1008 150.203C-85.6408 162.869 -89.2098 174.554 -88.1938 173.427C-86.3718 171.406 -76.0938 142.582 -76.9058 141.77C-77.3898 141.286 -79.2328 144.992 -81.1008 150.203ZM49.2112 143.962C49.4342 147.14 51.2982 148.072 52.2862 145.5C52.6422 144.57 52.2812 144 51.3342 144C50.4932 144 50.0652 143.581 50.3812 143.069C50.6982 142.557 50.5162 141.866 49.9782 141.533C49.4062 141.18 49.0872 142.192 49.2112 143.962ZM203.96 144.095C203.923 145.733 207.579 149.678 208.386 148.871C208.633 148.624 207.747 147.089 206.416 145.461C204.744 143.415 203.985 142.993 203.96 144.095ZM478.507 150.866C478.076 151.563 477.994 152.403 478.324 152.733C479.219 153.628 480.195 152.312 479.711 150.862C479.373 149.846 479.137 149.846 478.507 150.866ZM376.924 157C375.675 159.334 376.451 159.616 378.495 157.571C380.158 155.909 380.322 155 378.959 155C378.429 155 377.513 155.9 376.924 157ZM199.924 158.5C199.924 159.325 200.36 160 200.893 160C201.425 160 201.602 159.325 201.286 158.5C200.969 157.675 200.533 157 200.317 157C200.101 157 199.924 157.675 199.924 158.5ZM490.737 157.683C491.458 157.972 492.321 157.936 492.653 157.604C492.985 157.272 492.395 157.036 491.341 157.079C490.176 157.127 489.939 157.364 490.737 157.683ZM-8.34581 160.75C-8.6228 161.713 -9.1748 163.293 -9.57381 164.261C-10.1368 165.63 -9.9268 165.88 -8.62981 165.382C-7.71181 165.03 -7.1978 164.125 -7.4868 163.371C-7.7758 162.617 -7.5768 162 -7.0448 162C-6.5118 162 -6.07581 161.325 -6.07581 160.5C-6.07581 158.429 -7.7308 158.611 -8.34581 160.75ZM418.553 159.704C418.166 160.091 415.954 160.453 413.637 160.508L409.424 160.609L409.635 165.433C409.842 170.169 412.257 174.53 414.058 173.417C414.534 173.123 414.924 173.343 414.924 173.906C414.924 175.25 417.878 176.787 421.786 177.476C423.884 177.845 424.924 177.626 424.924 176.814C424.924 175.908 425.212 175.888 426.06 176.736C427.306 177.982 429.924 176.138 429.924 174.012C429.924 173.391 430.404 173.179 430.991 173.542C431.578 173.904 432.304 173.261 432.605 172.112C432.906 170.963 433.455 170.21 433.826 170.439C434.474 170.84 434.98 168.262 435.281 163.012C435.396 161.009 434.839 160.398 432.424 159.88C428.203 158.975 419.395 158.863 418.553 159.704ZM360.796 162.664C359.552 164.172 359.634 164.216 361.674 163.129C364.001 161.889 364.574 161 363.046 161C362.564 161 361.551 161.749 360.796 162.664ZM394.424 162.605C392.224 163.373 389.636 164.278 388.674 164.617C386.628 165.337 386.592 165.511 387.959 168.066C388.673 169.399 388.673 170 387.959 170C387.39 170 386.924 170.477 386.924 171.059C386.924 171.641 387.324 171.871 387.812 171.569C388.571 171.1 389.561 174.198 390.107 178.75C390.19 179.438 390.632 180 391.091 180C391.549 180 391.924 180.675 391.924 181.5C391.924 182.325 392.374 183 392.924 183C393.474 183 393.812 183.346 393.674 183.769C393.536 184.192 394.437 185.627 395.674 186.958C396.911 188.288 397.924 189.645 397.924 189.973C397.924 190.301 399.386 191.419 401.174 192.459C402.962 193.499 404.649 194.612 404.924 194.933C406.279 196.514 416.789 199.294 421.308 199.266C427.676 199.228 430.924 198.771 430.924 197.915C430.924 197.348 436.882 196.025 439.22 196.073C440.614 196.101 453.924 181.878 453.924 180.359C453.924 179.557 454.567 177.658 455.352 176.139C456.138 174.62 457.028 171.274 457.33 168.703C457.847 164.309 457.704 163.938 454.952 162.514C453.341 161.681 450.474 161 448.581 161C445.149 161 445.134 161.021 444.06 167.117C442.181 177.783 434.7 184.786 424.241 185.669C412.525 186.658 402.087 178.014 401.135 166.535C400.638 160.536 400.532 160.474 394.424 162.605ZM374.549 163.798C374.278 164.237 374.469 165.249 374.975 166.048C375.692 167.182 375.897 167.007 375.909 165.25C375.924 162.937 375.416 162.394 374.549 163.798ZM-10.8758 168.2C-12.3058 169.63 -12.4958 172.378 -11.1048 171.518C-9.98181 170.824 -8.5928 175.409 -9.48781 176.858C-9.81781 177.392 -9.5228 178.031 -8.8318 178.278C-8.14081 178.524 -7.8838 179.058 -8.2588 179.463C-9.65781 180.971 -11.1808 178.756 -10.5918 176.071C-10.1448 174.037 -10.3758 173.333 -11.4898 173.333C-12.3148 173.333 -13.2198 173.933 -13.5018 174.667C-13.7828 175.4 -13.5768 176 -13.0448 176C-12.5118 176 -12.0758 177.527 -12.0758 179.393C-12.0758 182.712 -9.81181 185 -8.54881 182.956C-8.22382 182.43 -7.47881 182 -6.89481 182C-6.24681 182 -6.34181 182.616 -7.13881 183.576C-8.22081 184.88 -8.2068 185.301 -7.05881 186.01C-5.13281 187.201 -3.80481 186.143 -4.39481 183.887C-4.75081 182.525 -4.35782 182 -2.98181 182C-0.325806 182 -0.604797 183.659 -3.7498 186.574C-5.7048 188.385 -6.12581 189.35 -5.3168 190.159C-3.72081 191.755 -1.30281 190.501 -0.78981 187.811C-0.503815 186.317 -0.299805 186.835 -0.211807 189.275C-0.0878143 192.717 -0.342804 193.103 -3.0968 193.654C-6.47281 194.329 -7.66881 195.516 -6.00681 196.543C-4.61481 197.403 1.92419 193.95 1.92419 192.354C1.92419 191.699 2.22519 190.378 2.59419 189.418C2.98219 188.408 2.86119 187.921 2.3082 188.263C1.7832 188.587 1.2672 187.986 1.1622 186.927C0.734207 182.599 0.550186 182 -0.349808 182C-0.866806 182 -1.0358 181.339 -0.7258 180.531C-0.415802 179.723 -0.814804 177.81 -1.61281 176.281C-2.41081 174.751 -3.06581 172.578 -3.06981 171.45C-3.0778 168.814 -4.9138 167 -7.57581 167C-8.7308 167 -10.2158 167.54 -10.8758 168.2ZM369.97 168.914C369.356 170.062 369.271 171 369.782 171C370.81 171 372.228 167.971 371.529 167.271C371.285 167.028 370.584 167.767 369.97 168.914ZM28.0032 169.583C28.0512 170.748 28.2882 170.985 28.6072 170.188C28.8962 169.466 28.8602 168.603 28.5282 168.271C28.1962 167.939 27.9602 168.529 28.0032 169.583ZM1.08119 175.5C2.66919 181.414 9.2612 196.309 13.0842 202.617C16.9152 208.94 24.9662 218 26.7532 218C27.4782 218 27.7762 217.099 27.4962 215.75C27.2402 214.512 26.7642 208.775 26.4402 203C26.1152 197.225 25.5902 190.588 25.2732 188.25C24.6692 183.791 22.9732 182.387 22.8562 186.25C22.7902 188.453 22.7642 188.448 21.6252 186C20.4362 183.443 18.0612 181.089 16.6152 181.032C16.1702 181.014 16.0842 181.45 16.4242 182C16.7642 182.55 16.6032 183 16.0662 183C15.5302 183 14.9312 182.521 14.7362 181.935C14.5402 181.349 12.6072 180.73 10.4402 180.558C7.64619 180.336 6.05119 179.57 4.9612 177.927C4.1162 176.652 2.6552 174.684 1.7162 173.554C0.0731964 171.579 0.0491943 171.654 1.08119 175.5ZM-6.82581 173.662C-7.5128 173.94 -8.07581 174.565 -8.07581 175.052C-8.07581 175.539 -7.3958 175.676 -6.5648 175.357C-5.5648 174.974 -5.23082 175.239 -5.57681 176.141C-5.86382 176.891 -5.1938 178.07 -4.0878 178.761C-2.8988 179.503 -2.07581 179.604 -2.07581 179.008C-2.07581 178.454 -2.5258 178 -3.07581 178C-3.62581 178 -4.07581 176.875 -4.07581 175.5C-4.07581 172.997 -4.4908 172.72 -6.82581 173.662ZM-14.6748 179.765C-15.8228 180.533 -16.2118 187 -15.1088 187C-13.3438 187 -12.2238 184.592 -13.1688 182.826C-13.7188 181.799 -13.8958 180.518 -13.5628 179.979C-12.8478 178.821 -13.1698 178.759 -14.6748 179.765ZM367.176 185.5C367.187 187.7 367.392 188.482 367.631 187.238C367.87 185.994 367.861 184.194 367.611 183.238C367.361 182.282 367.165 183.3 367.176 185.5ZM500.674 182.77C499.712 182.977 498.924 183.588 498.924 184.127C498.924 185.498 511.181 184.729 511.648 183.329C512.009 182.244 504.824 181.878 500.674 182.77ZM-11.0758 187.5C-11.0758 188.325 -10.6258 189 -10.0758 189C-9.5258 189 -9.07581 189.675 -9.07581 190.5C-9.07581 191.325 -9.7028 192 -10.4688 192C-11.2348 192 -12.1458 192.739 -12.4928 193.643C-13.2378 195.586 -13.1508 195.706 -10.6678 196.155C-8.1528 196.61 -6.79581 192.009 -8.41481 188.518C-9.70981 185.727 -11.0758 185.205 -11.0758 187.5ZM-19.0978 189.041C-20.3758 191.43 -19.0628 196 -17.0968 196C-15.5138 196 -15.8928 193.007 -17.5578 192.369C-18.7048 191.928 -18.7998 191.352 -17.9768 189.814C-17.3918 188.722 -17.1388 187.604 -17.4138 187.329C-17.6888 187.054 -18.4468 187.824 -19.0978 189.041ZM-15.5328 189.931C-15.8498 190.443 -15.6508 191.144 -15.0918 191.49C-13.8988 192.227 -12.0758 191.291 -12.0758 189.941C-12.0758 188.724 -14.7828 188.716 -15.5328 189.931ZM367.467 190.931C367.15 191.443 367.349 192.144 367.908 192.49C368.467 192.835 368.924 192.416 368.924 191.559C368.924 189.802 368.324 189.544 367.467 190.931ZM4.04019 195.559C3.9762 197.241 4.52721 199.442 5.2632 200.449C6.5592 202.222 6.6252 202.221 7.31819 200.417C7.76619 199.249 7.4962 198.16 6.5952 197.501C5.8042 196.923 4.93219 195.561 4.6572 194.475C4.3112 193.113 4.12019 193.45 4.04019 195.559ZM368.924 194.941C368.924 195.459 369.369 196.157 369.913 196.493C370.479 196.843 370.647 196.442 370.306 195.552C369.641 193.82 368.924 193.503 368.924 194.941ZM-19.5528 197.963C-19.8918 198.511 -19.7058 199.823 -19.1408 200.879C-18.3678 202.323 -18.4608 202.934 -19.5168 203.339C-20.3798 203.67 -20.7098 204.685 -20.3728 205.973C-19.8508 207.97 -19.7588 207.943 -18.4498 205.42C-17.6938 203.963 -17.0758 201.724 -17.0758 200.445C-17.0758 197.893 -18.5788 196.387 -19.5528 197.963ZM-15.0758 198.5C-15.0758 199.325 -14.6258 200 -14.0758 200C-13.5258 200 -13.0758 199.325 -13.0758 198.5C-13.0758 197.675 -13.5258 197 -14.0758 197C-14.6258 197 -15.0758 197.675 -15.0758 198.5ZM-1.37581 199.041C-1.82481 200.756 -1.56381 200.976 0.257187 200.417C3.05818 199.557 3.2562 199.346 2.46519 198.067C1.3772 196.307 -0.805801 196.86 -1.37581 199.041ZM-10.4638 199.569C-10.9148 200.743 -10.5208 201.058 -8.8988 200.819C-7.70781 200.644 -6.5468 199.938 -6.3208 199.25C-5.71181 197.402 -9.7518 197.713 -10.4638 199.569ZM-22.8258 200.72C-24.3268 201.256 -24.5098 204 -23.0448 204C-22.0128 204 -20.4978 201.198 -21.2018 200.594C-21.4078 200.418 -22.1378 200.475 -22.8258 200.72ZM-12.8258 203.031C-14.0638 203.529 -15.0758 204.625 -15.0758 205.468C-15.0758 207.761 -13.5138 207.318 -11.6678 204.5C-10.7668 203.125 -10.1528 202.029 -10.3028 202.063C-10.4528 202.098 -11.5878 202.534 -12.8258 203.031ZM-5.91081 203.597C-8.20482 205.203 -7.9968 207 -5.5168 207C-4.7238 207 -4.07581 206.325 -4.07581 205.5C-4.07581 204.675 -3.62581 204 -3.07581 204C-2.5258 204 -2.07581 204.675 -2.07581 205.5C-2.07581 206.333 -1.1868 207 -0.0758057 207C2.12019 207 2.3772 206.265 0.963196 204.029C0.451202 203.22 -0.287811 202.878 -0.67981 203.27C-1.07082 203.662 -1.9138 203.549 -2.5518 203.02C-3.3188 202.383 -4.45682 202.579 -5.91081 203.597ZM2.92419 203.378C2.92419 204.135 3.59421 205.311 4.4122 205.99C5.62221 206.994 6.02319 206.905 6.5582 205.512C6.94319 204.509 6.63719 203.432 5.82019 202.914C3.8252 201.651 2.92419 201.796 2.92419 203.378ZM-23.3558 207.332C-24.4698 210.165 -24.2878 211.612 -22.9818 210.306C-22.3808 209.705 -22.0558 208.377 -22.2618 207.356C-22.6218 205.566 -22.6608 205.565 -23.3558 207.332ZM-11.0758 208.882C-11.0758 209.432 -10.6258 210.16 -10.0758 210.5C-9.5258 210.84 -9.07581 210.668 -9.07581 210.118C-9.07581 209.568 -9.5258 208.84 -10.0758 208.5C-10.6258 208.16 -11.0758 208.332 -11.0758 208.882ZM-5.07581 209C-5.07581 209.55 -4.62581 210 -4.07581 210C-3.5258 210 -3.07581 209.55 -3.07581 209C-3.07581 208.45 -3.5258 208 -4.07581 208C-4.62581 208 -5.07581 208.45 -5.07581 209ZM1.92419 209C1.92419 209.55 2.62621 210 3.4832 210C4.34019 210 4.76419 209.55 4.42419 209C4.0842 208.45 3.38319 208 2.86519 208C2.34718 208 1.92419 208.45 1.92419 209ZM389.366 211.094C389.058 211.592 389.958 212 391.365 212C394.429 212 394.677 211.43 391.925 210.711C390.826 210.423 389.674 210.596 389.366 211.094ZM10.9242 212.559C10.9242 213.416 11.3742 213.84 11.9242 213.5C12.4742 213.16 12.9242 212.459 12.9242 211.941C12.9242 211.423 12.4742 211 11.9242 211C11.3742 211 10.9242 211.702 10.9242 212.559ZM-21.0758 214.155C-21.0758 216.179 -21.1868 216.21 -22.9048 214.655C-24.9708 212.785 -26.0758 212.545 -26.0758 213.965C-26.0758 214.495 -25.1388 215.431 -23.9928 216.045C-22.3338 216.932 -21.5238 216.811 -20.0158 215.446C-18.1738 213.779 -18.2348 212 -20.1348 212C-20.6528 212 -21.0758 212.97 -21.0758 214.155ZM-12.7238 213.053C-13.9048 213.497 -15.1688 214.341 -15.5328 214.93C-16.3738 216.292 -15.4868 216.29 -12.9358 214.925C-11.2708 214.034 -10.8388 214.19 -10.4088 215.836C-9.9238 217.689 -9.7628 217.712 -7.9828 216.188C-6.93381 215.29 -6.07581 213.911 -6.07581 213.123C-6.07581 211.983 -6.46681 212.044 -7.98781 213.42C-9.57881 214.86 -9.9568 214.907 -10.2378 213.699C-10.4808 212.656 -11.1818 212.474 -12.7238 213.053ZM-3.32381 213.977C-5.11981 216.075 -4.58681 216.61 -2.20381 215.1C-1.44981 214.622 -1.00281 213.719 -1.21181 213.092C-1.44081 212.404 -2.2758 212.753 -3.32381 213.977ZM4.91519 213.489C6.16418 214.994 7.92419 214.673 7.92419 212.941C7.92419 212.423 6.96921 212 5.8022 212C4.0352 212 3.88618 212.25 4.91519 213.489ZM14.6062 215.652C14.2472 216.01 15.1242 216.91 16.5532 217.652C20.1132 219.498 20.5482 219.347 18.4242 217C16.5112 214.887 15.6682 214.589 14.6062 215.652ZM-28.0968 217.013C-29.2398 217.72 -29.2958 218.18 -28.3498 219.126C-27.4048 220.071 -26.9978 219.961 -26.4848 218.624C-25.6498 216.447 -26.2338 215.862 -28.0968 217.013ZM8.42419 217C8.76419 217.55 9.46519 218 9.9832 218C10.5012 218 10.9242 217.55 10.9242 217C10.9242 216.45 10.2222 216 9.36519 216C8.50819 216 8.0842 216.45 8.42419 217ZM-0.825806 218.662C-2.51581 219.344 -2.41479 221 -0.6828 221C0.0832062 221 0.969193 220.325 1.28619 219.5C1.87419 217.967 1.38219 217.771 -0.825806 218.662ZM4.92419 219.559C4.92419 220.416 5.37419 220.84 5.92419 220.5C6.4742 220.16 6.92419 219.459 6.92419 218.941C6.92419 218.423 6.4742 218 5.92419 218C5.37419 218 4.92419 218.702 4.92419 219.559ZM13.9242 222C13.9242 222.55 14.4012 223 14.9832 223C15.5652 223 15.7642 222.55 15.4242 222C15.0842 221.45 14.6082 221 14.3652 221C14.1222 221 13.9242 221.45 13.9242 222ZM8.92419 223C8.92419 223.55 9.37419 224 9.92419 224C10.4742 224 10.9242 223.55 10.9242 223C10.9242 222.45 10.4742 222 9.92419 222C9.37419 222 8.92419 222.45 8.92419 223ZM-10.5758 224C-10.2358 224.55 -9.7598 225 -9.5168 225C-9.2738 225 -9.07581 224.55 -9.07581 224C-9.07581 223.45 -9.55281 223 -10.1348 223C-10.7168 223 -10.9158 223.45 -10.5758 224ZM3.42419 224C3.76419 224.55 4.2402 225 4.4832 225C4.7262 225 4.92419 224.55 4.92419 224C4.92419 223.45 4.44719 223 3.86519 223C3.28319 223 3.0842 223.45 3.42419 224ZM12.9242 226.059C12.9242 226.641 13.3742 226.84 13.9242 226.5C14.4742 226.16 14.9242 225.684 14.9242 225.441C14.9242 225.198 14.4742 225 13.9242 225C13.3742 225 12.9242 225.477 12.9242 226.059ZM18.7372 225.683C19.4582 225.972 20.3212 225.936 20.6532 225.604C20.9852 225.272 20.3952 225.036 19.3412 225.079C18.1762 225.127 17.9392 225.364 18.7372 225.683ZM-29.4368 226.694C-30.5628 227.82 -30.1218 229 -28.5758 229C-27.7508 229 -27.0758 228.577 -27.0758 228.059C-27.0758 226.798 -28.6378 225.895 -29.4368 226.694ZM-6.3468 226.604C-6.7478 227.005 -7.07581 228.023 -7.07581 228.867C-7.07581 229.992 -6.7798 230.104 -5.9628 229.288C-5.35181 228.676 -5.02281 227.657 -5.23381 227.025C-5.44481 226.393 -5.9458 226.203 -6.3468 226.604ZM22.4242 229C22.0842 229.55 22.2832 230 22.8652 230C23.4472 230 23.9242 229.55 23.9242 229C23.9242 228.45 23.7262 228 23.4832 228C23.2402 228 22.7642 228.45 22.4242 229ZM-21.0758 232.059C-21.0758 232.641 -20.6258 232.84 -20.0758 232.5C-19.5258 232.16 -19.0758 231.684 -19.0758 231.441C-19.0758 231.198 -19.5258 231 -20.0758 231C-20.6258 231 -21.0758 231.477 -21.0758 232.059ZM7.46719 231.931C6.78419 233.036 8.36119 234.23 9.28519 233.306C10.2352 232.355 10.0582 231 8.9832 231C8.46519 231 7.78319 231.419 7.46719 231.931ZM13.4242 232C13.7642 232.55 14.2402 233 14.4832 233C14.7262 233 14.9242 232.55 14.9242 232C14.9242 231.45 14.4472 231 13.8652 231C13.2832 231 13.0842 231.45 13.4242 232ZM-31.0758 237C-31.0758 237.55 -30.6258 238 -30.0758 238C-29.5258 238 -29.0758 237.55 -29.0758 237C-29.0758 236.45 -29.5258 236 -30.0758 236C-30.6258 236 -31.0758 236.45 -31.0758 237ZM-2.07581 239C-2.07581 239.55 -1.62581 240 -1.07581 240C-0.525803 240 -0.0758057 239.55 -0.0758057 239C-0.0758057 238.45 -0.525803 238 -1.07581 238C-1.62581 238 -2.07581 238.45 -2.07581 239ZM-20.5758 240C-20.2358 240.55 -19.7598 241 -19.5168 241C-19.2738 241 -19.0758 240.55 -19.0758 240C-19.0758 239.45 -19.5528 239 -20.1348 239C-20.7168 239 -20.9158 239.45 -20.5758 240Z" fill="black"/>
</g>
<rect x="2.5" y="2.5" width="225" height="225" stroke="black" stroke-width="5"/>
<defs>
<clipPath id="clip0_671_12651">
<rect width="230" height="230" fill="white"/>
</clipPath>
</defs>
</svg>
