<svg width="2085" height="230" viewBox="0 0 2085 230" fill="none" xmlns="http://www.w3.org/2000/svg">
<g clip-path="url(#clip0_666_12637)">
<rect width="600" height="230" fill="white"/>
<path d="M126 123V101.5L126.5 96L150.5 98L146 109V119L151 126L158 130H168L177 124L182.5 114H189.5L197 124L199 132L189.5 142.5L170 150.5H150.5L137.5 142.5L126 123Z" fill="#FF0202" stroke="black"/>
<path d="M406.5 178L402.5 166L413.5 157L422.5 160L425 171.5L431.5 178L441 183.5L453 180L458.5 171.5L462 157H471.5L481 163V171.5L475.5 183.5L466 195L453 202.5H441L425 199L413.5 189L406.5 178Z" fill="#FF0202" stroke="black"/>
<path fill-rule="evenodd" clip-rule="evenodd" d="M-77.9039 17.239C-85.4479 49.114 -88.0299 64.52 -90.5159 92.5C-91.7709 106.614 -92.5669 111.364 -94.2039 114.5C-95.3519 116.7 -99.6309 124.575 -103.712 132C-107.794 139.425 -113.765 151.35 -116.983 158.5C-120.2 165.65 -125.345 176.99 -128.416 183.699C-133.059 193.843 -133.987 196.791 -133.921 201.199C-133.878 204.115 -133.588 205.825 -133.278 205C-128.926 193.432 -116.019 163.778 -109.556 150.5C-101.183 133.295 -93.0939 118.668 -92.9649 120.5C-92.4569 127.755 -93.4189 148.722 -94.4749 153.408C-95.2299 156.759 -97.0319 167.6 -98.4789 177.5C-99.9249 187.4 -101.55 196.306 -102.089 197.291C-102.627 198.276 -102.819 199.484 -102.515 199.976C-101.675 201.335 -104.629 222.951 -106.277 227.5C-107.073 229.7 -108.71 235.775 -109.914 241C-111.117 246.225 -112.334 251.287 -112.618 252.25C-113.107 253.905 -109.356 254 -43.6509 254C11.0011 254 25.9411 253.733 26.3381 252.75C26.7411 251.75 26.8581 251.75 26.9211 252.75C26.9801 253.687 30.5131 254 41.0191 254H55.0381L54.5211 251.75C52.3801 242.437 48.8221 212.751 48.3191 200C47.7081 184.533 48.4401 172.536 49.9391 173.462C50.3741 173.731 51.2751 176.775 51.9401 180.226C53.6391 189.032 59.5901 212.336 61.9711 219.5L63.9651 225.5L63.2321 218.5C62.3701 210.261 62.6341 167.167 63.6001 158.5C63.9681 155.2 64.2921 150.838 64.3201 148.806C64.3481 146.774 64.7181 145.326 65.1421 145.588C65.5661 145.85 65.6591 146.725 65.3491 147.532C65.0261 148.376 65.3631 149.007 66.1431 149.015C67.2851 149.028 67.2861 149.167 66.1431 149.89C65.1971 150.49 65.1221 150.957 65.8931 151.434C67.2951 152.3 69.0001 151.282 69.0001 149.58C69.0001 148.71 69.8801 148.446 71.6491 148.784C73.4771 149.133 74.0781 148.935 73.5901 148.145C73.1551 147.441 73.6021 147 74.7511 147C75.7801 147 79.4061 145.908 82.8101 144.574C86.2151 143.24 89.0001 142.518 89.0001 142.969C89.0001 144.046 97.0051 144.801 97.6341 143.784C97.9001 143.353 98.6541 143.007 99.3091 143.015C100.141 143.026 100.107 143.28 99.1951 143.858C98.2931 144.431 99.2961 145.223 102.445 146.426C104.95 147.383 107 148.538 107 148.993C107 150.318 117.007 154.934 118.575 154.333C119.444 153.999 120 154.413 120 155.393C120 156.483 120.893 157 122.777 157C124.305 157 126.496 157.659 127.646 158.465C128.796 159.27 129.957 159.709 130.226 159.441C130.495 159.172 131.284 159.638 131.98 160.476C132.676 161.314 134.513 162 136.063 162C137.614 162 139.124 162.391 139.419 162.869C139.937 163.707 144.769 164.788 151.957 165.673C153.858 165.907 156.015 166.597 156.749 167.207C157.69 167.988 158.398 168.002 159.145 167.255C160.355 166.045 164 168.603 164 170.663C164 172.043 165.865 173.468 166.648 172.686C166.931 172.403 166.627 171.171 165.972 169.948C164.879 167.906 164.974 167.767 167.141 168.234C168.439 168.514 170.366 169.104 171.424 169.545C172.933 170.175 173.217 170.009 172.744 168.775C172.222 167.414 173.277 167.222 180.557 167.351C185.384 167.436 189.086 167.079 189.237 166.512C189.532 165.405 184.447 164.558 172.273 163.685C167.748 163.361 163.131 162.605 162.012 162.006C160.893 161.407 159.42 161.026 158.739 161.159C155.813 161.73 140.24 157.574 133.163 154.334C120.039 148.326 106.203 137.809 103.779 132C101.359 126.202 100.177 118.942 101.105 115.581C101.962 112.477 105 109.736 105 112.067C105 112.679 105.682 112.74 106.75 112.222C107.713 111.755 109.527 111.454 110.782 111.552C112.037 111.65 112.828 111.495 112.54 111.207C112.253 110.919 112.576 109.968 113.259 109.092C114.301 107.756 114.259 107.663 113 108.516C111.242 109.706 109.006 109.764 107.25 108.665C104.97 107.237 105.954 106.303 109.489 106.54C111.408 106.669 112.727 106.368 112.42 105.871C112.113 105.374 111.443 105.226 110.931 105.543C110.419 105.859 109.502 105.81 108.893 105.434C108.122 104.957 108.197 104.49 109.143 103.89C110.051 103.315 110.106 103.026 109.309 103.015C108.654 103.007 107.84 103.45 107.5 104C107.16 104.55 106.389 105 105.786 105C105.183 105 105.462 104.147 106.405 103.105C108.495 100.796 112.492 99.9 114.02 101.399C114.842 102.205 115.057 102.101 114.821 101.014C114.594 99.963 115.452 99.476 117.75 99.351C120.346 99.21 121 99.559 121 101.087C121 102.236 120.301 103.006 119.25 103.015C118.262 103.024 117.935 103.35 118.5 103.765C119.05 104.169 119.55 108.325 119.612 113C119.762 124.383 120.261 126.581 124.458 134.354C128.02 140.951 134.783 148.215 139.858 150.895C141.311 151.663 142.725 152.563 143 152.895C143.275 153.228 145.816 154.29 148.647 155.255C166.006 161.172 183.605 156.645 196.297 142.996C203.521 135.228 203.238 135.157 207.697 145.826C209.798 150.851 209.836 151.37 208.372 155.029C207.286 157.743 205.335 159.86 201.872 162.082C196.62 165.452 195.986 166.716 200.386 165.043C203.355 163.915 211 156.54 211 154.805C211 153.06 214.287 156.477 216.394 160.412C218.675 164.673 217.433 167 212.878 167C208.804 167 209.303 168.647 213.623 169.457C215.616 169.831 218.023 170.622 218.972 171.215C220.844 172.384 226 171.531 226 170.052C226 169.552 225.438 168.536 224.75 167.794C220.053 162.727 209.844 138.89 212.054 138.15C212.706 137.932 212.524 136.922 211.572 135.469C210.231 133.423 206.002 123.244 206.001 122.06C206 121.817 208.267 124.067 211.038 127.06C215.648 132.037 215.933 132.202 214.384 129C212.593 125.299 207.136 119 205.721 119C205.26 119 205.203 119.52 205.595 120.155C206.041 120.876 205.869 121.037 205.138 120.585C204.494 120.187 204.254 119.399 204.603 118.833C204.953 118.266 201.597 114.248 197.145 109.902C192.692 105.556 189.398 102 189.825 102C190.251 102 191.14 102.54 191.8 103.2C193.374 104.774 195.406 102.87 195.5 99.733C195.598 96.473 199.005 87 200.08 87C201.47 87 201.173 90.144 199.476 93.399C198.645 94.993 198.193 96.527 198.473 96.807C198.754 97.087 198.598 97.807 198.128 98.408C197.658 99.009 196.994 101.332 196.653 103.57C196.091 107.262 196.349 107.946 199.425 110.927C202.665 114.068 202.862 114.126 203.872 112.239C204.654 110.778 205.628 110.397 207.613 110.777C209.468 111.131 210.079 110.937 209.591 110.147C209.202 109.518 210.255 107.315 211.93 105.252C213.605 103.188 215.796 100.432 216.798 99.126C218.573 96.812 218.702 96.794 221.842 98.418C223.614 99.335 226.667 102.315 228.626 105.042C230.755 108.006 232.954 110 234.094 110C235.142 110 236 110.45 236 111C236 111.55 236.408 112 236.906 112C237.405 112 237.55 110.994 237.228 109.765C236.578 107.278 226.266 97 224.421 97C223.774 97 222.686 96.326 222.002 95.502C220.604 93.817 222.89 90.281 230.537 82.301C234.649 78.008 238 77.257 238 80.628C238 81.406 239.125 82.555 240.5 83.182C241.875 83.808 243 84.832 243 85.457C243 86.082 244.238 86.566 245.75 86.534C248.794 86.468 256 89.549 256 90.916C256 91.395 256.573 92.006 257.274 92.275C258.189 92.626 258.518 91.598 258.441 88.632C258.317 83.798 255.737 77.497 253.537 76.653C252.692 76.328 252 74.924 252 73.531C252 71.589 251.476 70.987 249.75 70.945C248.497 70.914 246.465 69.579 245.163 67.931L242.826 64.974L245.451 61.737C246.894 59.957 249.855 56.339 252.031 53.697C254.206 51.056 256.494 47.906 257.115 46.697C257.736 45.489 259.378 43.284 260.763 41.798C263.94 38.391 274.301 23.692 276.959 18.823C278.063 16.8 279.874 14.857 280.983 14.505C282.092 14.153 283 13.018 283 11.982C283 10.947 283.563 9.73999 284.25 9.29999C284.938 8.85999 286.541 6.58799 287.814 4.24999L290.128 -1.02539e-05H245.635H201.142L199.532 5.74999C198.647 8.91199 197.488 12.4 196.955 13.5C196.423 14.6 194.468 20.9 192.611 27.5C188.95 40.513 187.374 45 186.466 45C186.145 45 186.191 44.5 186.569 43.888C187.474 42.424 185.172 41.034 181.809 41.015C180.329 41.007 178.861 40.585 178.548 40.077C178.234 39.569 176.637 38.86 175 38.5C170.676 37.55 170.518 36.504 173.935 31.441C175.621 28.943 177 26.317 177 25.605C177 24.893 177.889 23.506 178.974 22.523C180.06 21.54 181.239 19.824 181.593 18.709C181.946 17.593 183.982 14.165 186.117 11.09C188.251 8.01599 189.998 5.08499 189.999 4.57899C189.999 4.07199 190.745 2.83499 191.655 1.82899C193.256 0.0599897 192.015 -1.02539e-05 153.855 -1.02539e-05C114.154 -1.02539e-05 111.386 0.23699 112.646 3.52099C113.292 5.20199 111.347 6.37099 110.415 4.86199C109.93 4.07699 110.128 3.96099 111.015 4.50999C111.956 5.09099 112.168 4.88099 111.748 3.78599C111.423 2.93799 111.684 1.70099 112.328 1.03699C113.236 0.10299 112.936 -0.0940102 111 0.16499C109.625 0.34899 108.5 1.02499 108.5 1.66699C108.5 2.30799 108.177 3.15699 107.781 3.55199C107.386 3.94699 107.251 3.29099 107.482 2.09399C107.887 -0.00701022 107.637 -0.0720102 100.275 0.20899L92.6501 0.49999L89.0751 8.64999C87.1091 13.132 84.8881 18.221 84.1411 19.957C83.3931 21.694 82.6061 22.939 82.3911 22.724C82.1761 22.51 84.0251 17.434 86.5001 11.444C88.9751 5.45499 91.0001 0.42999 91.0001 0.27699C91.0001 0.12499 88.6081 -1.02539e-05 85.6841 -1.02539e-05H80.3681L77.5061 5.98799C73.9181 13.495 73.0491 13.208 76.4031 5.62399L78.8901 -1.02539e-05H75.0331H71.1751L68.2241 7.74999C66.6011 12.013 64.2471 18.323 62.9941 21.774C58.8561 33.163 59.9361 27.609 64.5101 13.969C66.9801 6.60699 69.0001 0.45199 69.0001 0.29199C69.0001 0.13099 60.9831 -1.02539e-05 51.1841 -1.02539e-05H33.3681L31.1371 3.96999C29.9101 6.15399 28.4231 8.23899 27.8321 8.60399C27.2421 8.96799 27.9811 7.18199 29.4751 4.63299L32.1901 -1.02539e-05H20.3301H8.47012L-2.39088 17.75C-16.1789 40.284 -18.9739 44.669 -18.9879 43.791C-18.9989 43.126 -2.27388 13.679 2.47612 5.99999C3.66711 4.07499 4.97311 1.93799 5.37912 1.24999C5.96211 0.26399 0.985123 0.00198974 -18.1909 0.00898974L-42.4999 0.0179897L-47.8279 13.759C-52.3399 25.396 -57.7069 37.162 -55.4649 30.5C-55.0949 29.4 -54.4199 27.375 -53.9659 26C-53.5119 24.625 -51.1489 18.244 -48.7149 11.819L-44.2899 0.13799L-59.0539 0.0579897L-73.8189 -0.0230103L-77.9039 17.239ZM294.053 7.24999C289.629 21.122 284.093 37.553 280.996 46C279.282 50.675 277.183 56.75 276.331 59.5C274.419 65.673 266.222 88.771 264.975 91.5C260.32 101.682 250.741 129.772 251.502 131.004C251.798 131.482 253.455 132.579 255.185 133.442C258.066 134.88 258.484 134.872 260.165 133.351C262.17 131.537 262.747 132.853 260.8 134.8C259.291 136.309 260.811 138.035 263.851 138.264C265.033 138.353 266 138.969 266 139.633C266 140.298 267.238 141.1 268.75 141.417C273.918 142.499 285.495 143.96 289.053 143.98L292.605 144L301.968 124.75C309.902 108.438 315.743 95.808 322.435 80.5C323.156 78.85 324.567 75.291 325.57 72.59C326.573 69.89 327.553 68.16 327.749 68.746C327.944 69.332 322.515 84.591 315.684 102.656C308.853 120.72 302.661 137.3 301.923 139.5C301.186 141.7 300.188 144.043 299.705 144.706C298.427 146.464 299.755 148 302.554 148C304.717 148 305.933 146.065 313.39 130.75C330.924 94.74 337.485 80.908 341.733 71C342.559 69.075 344.494 64.8 346.035 61.5C347.576 58.2 352.275 46.975 356.477 36.555C363.723 18.591 365.9 13.679 365.97 15.142C366.017 16.142 349.825 64.669 343.494 82.5C340.37 91.3 337.45 99.625 337.006 101C336.562 102.375 335.418 105.3 334.463 107.5C333.509 109.7 330.13 118.925 326.954 128C323.778 137.075 320.464 146.173 319.59 148.218C317.395 153.351 317.512 153.769 321.622 155.487C327.856 158.091 326.413 159.895 338.803 134C342.093 127.125 345.773 119.25 346.981 116.5C348.19 113.75 350.455 108.8 352.015 105.5C353.575 102.2 356.861 95 359.317 89.5C361.774 84 364.907 77.025 366.28 74C367.653 70.975 369.758 66.319 370.957 63.653C372.157 60.987 373.365 59.032 373.642 59.308C373.918 59.585 372.987 62.342 371.572 65.435C370.158 68.529 369 71.22 369 71.416C369 71.749 362.273 86.463 357.989 95.5C356.947 97.7 353.198 106.025 349.66 114C343.414 128.076 341.032 133.303 333.709 149C331.784 153.125 330.353 156.654 330.529 156.841C332.79 159.253 341.101 144.631 358.007 108.5C360.323 103.55 365.739 92.3 370.042 83.5C374.346 74.7 379.969 62.325 382.538 56C385.107 49.675 388.017 42.7 389.004 40.5C389.991 38.3 392.884 31.1 395.434 24.5C397.983 17.9 400.504 11.719 401.035 10.764C401.566 9.80899 402 8.59999 402 8.07899C402 6.34499 404.047 1.71399 404.579 2.24599C405.593 3.25999 400.417 29.066 391.491 67.5C386.355 89.612 382.18 101.022 379.245 100.968C377.665 100.939 377.682 100.799 379.427 99.479C380.487 98.677 381.14 97.806 380.878 97.545C380.267 96.934 369.914 105.403 368.768 107.45C367.397 109.9 369.4 109.269 372.076 106.408C373.409 104.983 375.398 103.333 376.496 102.741C378.109 101.873 377.954 102.371 375.691 105.339C372.592 109.402 372.956 111.433 376.658 110.725C378.883 110.3 379.039 110.518 378.565 113.381C377.773 118.156 370.987 140.335 368.467 146.386C366.904 150.139 370.22 147.465 372.718 142.959C374.93 138.967 375.138 138.815 374.701 141.5L374.213 144.5L375.856 142.001C379.048 137.15 384.544 133.028 390.736 130.842C394.181 129.625 397 128.263 397 127.815C397 126.723 397.16 126.693 389.355 129.215C385.585 130.434 381.909 131.45 381.187 131.473C380.465 131.497 379.012 132.637 377.959 134.008C375.718 136.925 375.281 134.915 377.305 131C378.015 129.625 380.128 124.675 382 120C383.872 115.325 385.985 110.375 386.695 109L387.988 106.5L388.011 109C388.033 111.432 388.09 111.412 390.115 108.25C391.26 106.462 392.629 105 393.157 105C393.686 105 393.84 105.45 393.5 106C393.16 106.55 393.359 107 393.941 107C394.523 107 395 106.341 395 105.535C395 104.73 395.9 103.589 397 103C399.466 101.68 399.625 102.769 397.25 104.708C395.702 105.972 396.164 106.07 401.25 105.56C404.413 105.242 407 105.356 407 105.813C407 106.27 406.356 108.636 405.569 111.072C404.781 113.507 403.419 118.088 402.541 121.25C401.391 125.391 400.462 127.004 399.222 127.015C397.885 127.027 397.801 127.221 398.846 127.883C399.929 128.57 399.378 131.249 396.021 141.618C393.727 148.703 391.279 155.4 390.58 156.5C388.631 159.571 389.614 161.097 392.769 159.898C395.38 158.905 395.387 158.915 393.541 160.955C392.516 162.087 391.188 163.862 390.589 164.9C385.517 173.683 371.66 186.931 361.929 192.299C357.106 194.959 359.634 196.669 369.235 197.239C377.595 197.735 379.257 197.308 375.744 195.566C371.927 193.674 372.29 189.635 376.574 186.339C378.603 184.777 381.726 182.263 383.514 180.75C387.15 177.673 388.496 177.265 387.638 179.5C387.322 180.325 387.442 181 387.906 181C388.37 181 389.028 179.608 389.369 177.906C389.953 174.983 395.8 168 397.663 168C398.138 168 399.081 170.363 399.759 173.25C401.742 181.702 406.818 190.633 412.686 195.996C438.827 219.887 479.599 205.879 485.985 170.813C487.159 164.368 487.288 164.159 489.567 165.026C494.812 167.02 499.652 169.977 502.392 172.862C504.986 175.592 505.22 176.377 504.661 180.456C503.538 188.649 497.02 198.833 490.754 202.188C488.964 203.146 484.575 205.328 481 207.038C477.425 208.747 473.676 210.59 472.668 211.133C469.476 212.852 452.85 214.237 443.235 213.586C435.568 213.066 424.165 210.656 409.094 206.369C404.273 204.998 408.022 207.846 413.262 209.536C416.143 210.465 418.95 211.779 419.5 212.456C420.05 213.134 422.155 213.997 424.177 214.375C426.2 214.754 428.008 215.525 428.197 216.09C428.575 217.224 467.391 217.514 474.578 216.436C477.035 216.068 479.647 216.276 480.886 216.939C482.734 217.928 483 217.799 483 215.919C483 214.233 483.45 213.884 485.074 214.309C486.343 214.641 487.863 214.137 488.988 213.012C490.487 211.513 491.54 211.326 494.664 212.004C498.325 212.797 498.397 212.765 496.25 211.296C492.868 208.981 493.462 208.298 499.514 207.542C502.546 207.163 504.769 206.436 504.454 205.926C504.14 205.417 504.696 204.923 505.691 204.829C506.686 204.735 508.175 204.558 509 204.435C509.825 204.313 511.539 204.165 512.809 204.106C515.863 203.966 514.586 202 511.441 202C510.098 202 509 201.595 509 201.101C509 200.068 516.433 196 518.319 196C520.467 196 527.141 192.205 526.112 191.569C525.577 191.238 524.856 191.425 524.51 191.984C523.705 193.286 520 193.315 520 192.019C520 191.48 521.237 190.777 522.75 190.459C524.263 190.14 526.239 189.483 527.142 188.998C528.045 188.514 528.993 188.326 529.248 188.581C530.698 190.032 516.812 225.47 507.637 243.73C505.087 248.807 503 253.194 503 253.48C503 253.766 524.825 254 551.5 254H600V127V-1.02539e-05H512.561H425.123L424.438 4.74999C424.061 7.36199 422.905 14.45 421.869 20.5C420.833 26.55 418.862 38.7 417.489 47.5C413.172 75.166 410.776 88.744 409.984 90.025C409.563 90.707 407.032 91.617 404.359 92.049C401.687 92.481 398.641 93.172 397.591 93.585C395.89 94.254 395.752 93.992 396.316 91.168C396.665 89.426 396.567 88 396.1 88C395.633 88 394.98 89.35 394.65 91C394.32 92.65 393.541 94 392.918 94C392.235 94 392.069 93.306 392.499 92.25C392.891 91.288 393.881 88.588 394.7 86.25C395.518 83.913 396.821 82 397.594 82C398.367 82 399 81.523 399 80.941C399 80.359 398.492 80.196 397.87 80.58C397.178 81.008 396.936 80.74 397.245 79.889C397.523 79.125 398.266 78.616 398.896 78.757C399.658 78.928 399.818 78.125 399.375 76.358C398.928 74.576 399.063 73.921 399.785 74.367C400.377 74.733 401.125 74.606 401.447 74.085C401.769 73.564 401.553 72.842 400.968 72.48C400.227 72.022 400.26 71.392 401.074 70.411C401.718 69.635 401.895 69 401.467 69C401.04 69 401.491 68.115 402.47 67.033C403.449 65.951 404.25 63.926 404.25 62.533C404.25 61.14 404.692 60 405.232 60C405.772 60 405.976 59.38 405.685 58.622C405.394 57.864 405.529 56.851 405.985 56.372C406.996 55.308 409.501 47.314 416.6 22.5C419.589 12.05 422.283 2.71299 422.585 1.74999C423.105 0.0959897 419.659 -1.02539e-05 359.75 -1.02539e-05H296.365L294.053 7.24999ZM25.4591 11.067C25.0961 11.653 25.0141 12.348 25.2761 12.61C25.5381 12.872 26.0191 12.392 26.3451 11.543C27.0211 9.78099 26.4451 9.47099 25.4591 11.067ZM103.5 11C103.16 11.55 103.359 12 103.941 12C104.523 12 105 11.55 105 11C105 10.45 104.802 9.99999 104.559 9.99999C104.316 9.99999 103.84 10.45 103.5 11ZM108.638 13.5C108.955 14.325 109.391 15 109.607 15C109.823 15 110 14.325 110 13.5C110 12.675 109.564 12 109.031 12C108.499 12 108.322 12.675 108.638 13.5ZM107.564 16.293C107.94 17.279 108.499 17.834 108.807 17.526C109.115 17.219 108.808 16.412 108.124 15.733C107.136 14.753 107.022 14.868 107.564 16.293ZM125.469 19.5C125.211 20.325 124.78 21.698 124.511 22.552C124.243 23.406 124.414 23.862 124.892 23.567C125.37 23.271 125.978 21.898 126.242 20.515C126.764 17.782 126.226 17.075 125.469 19.5ZM275.5 24C275.16 24.55 275.359 25 275.941 25C276.523 25 277 24.55 277 24C277 23.45 276.802 23 276.559 23C276.316 23 275.84 23.45 275.5 24ZM103.667 24.667C103.3 25.033 103 25.798 103 26.367C103 26.993 103.466 26.934 104.183 26.217C104.834 25.566 105.134 24.801 104.85 24.517C104.566 24.233 104.033 24.3 103.667 24.667ZM106.459 25.067C106.096 25.653 106.014 26.348 106.276 26.61C106.538 26.872 107.019 26.392 107.345 25.543C108.021 23.781 107.445 23.471 106.459 25.067ZM164.318 27.25C163.808 27.938 162.828 29.813 162.14 31.418C161.024 34.024 161.056 34.198 162.445 33.046C163.3 32.336 164 31 164 30.078C164 29.155 164.54 27.86 165.2 27.2C165.86 26.54 166.14 26 165.822 26C165.505 26 164.828 26.563 164.318 27.25ZM-79.3049 42.23C-84.5619 69.092 -88.6339 97.47 -87.8299 101.646C-87.5439 103.128 -87.0239 102.774 -85.2359 99.882C-83.7059 97.407 -82.9999 94.694 -82.9999 91.293C-82.9999 88.559 -81.4039 73.596 -79.4519 58.042C-77.5009 42.488 -76.0859 29.581 -76.3059 29.36C-76.5269 29.14 -77.8759 34.931 -79.3049 42.23ZM272.667 29.667C272.3 30.033 272 30.798 272 31.367C272 31.993 272.466 31.934 273.183 31.217C273.834 30.566 274.134 29.801 273.85 29.517C273.566 29.233 273.033 29.3 272.667 29.667ZM101.269 31.373C100.951 31.888 101.178 32.008 101.773 31.64C102.369 31.272 103.144 31.877 103.495 32.985C104.15 35.049 106 35.798 106 34C106 33.45 105.495 33 104.878 33C104.083 33 104.105 32.579 104.953 31.556C105.937 30.37 105.767 30.142 104 30.275C102.816 30.364 101.588 30.858 101.269 31.373ZM481.678 31.712C481.391 32.177 480.194 36.323 479.019 40.926C476.737 49.863 468.234 73.068 463.11 84.343C458.823 93.775 458.935 94.953 464.046 94.267C466.968 93.875 468.01 94.068 467.796 94.963C467.622 95.691 468.782 96.356 470.616 96.577C474.737 97.075 476.637 94.82 477.419 88.5C477.76 85.75 478.28 81.7 478.576 79.5C479.468 72.861 482.827 31.524 482.502 31.183C482.336 31.009 481.965 31.247 481.678 31.712ZM121.103 34.25C120.636 35.487 119.92 38.075 119.51 40C119.1 41.925 118.508 43.931 118.195 44.458C117.882 44.984 117.452 46.559 117.24 47.958C116.621 52.05 116.316 53.408 115.658 55C115.318 55.825 114.918 58.525 114.769 61C114.534 64.931 114.769 65.538 116.628 65.804C118.521 66.074 118.839 65.465 119.505 60.304C119.917 57.112 120.41 52.475 120.602 50C121.028 44.501 121.536 40.668 122.493 35.75C123.296 31.625 122.44 30.702 121.103 34.25ZM533.643 48.544C529.468 66.843 526.579 77.654 521.499 94C518.175 104.693 518.24 106.956 521.872 107.035C522.768 107.055 524.625 107.749 526 108.577C527.921 109.735 528.037 109.97 526.5 109.595C518.154 107.557 517.075 107.665 516.012 110.642C510.888 124.989 504.376 141 503.664 141C503.181 141 503.133 140.212 503.558 139.25C505.57 134.688 513.946 109.285 513.971 107.667C514.031 103.859 511.677 106.85 508.566 114.535C503.559 126.903 498.835 136.99 495.265 142.941C493.469 145.934 492 148.966 492 149.679C492 151.559 498.954 155.657 504.085 156.801C507.42 157.545 507.828 157.812 505.75 157.893C504.237 157.952 503 158.375 503 158.833C503 159.989 514.86 166 517.14 166C518.163 166 519 166.459 519 167.019C519 167.607 517.942 167.772 516.5 167.411C512.246 166.343 513.736 168.292 521.157 173.5C526.441 177.209 527.793 178.59 526.39 178.847C523.231 179.427 522.346 181 525.179 181C527.949 181 529.34 178.718 531.072 171.335C533.163 162.418 536.695 134.498 537.439 121C537.697 116.325 538.389 106.473 538.978 99.107C539.566 91.741 539.834 85.501 539.573 85.239C538.634 84.3 534.73 111.754 535.602 113.165C535.916 113.673 535.729 114.63 535.188 115.294C534.646 115.957 533.246 121.225 532.076 127C528.524 144.524 523.755 163 522.783 163C522.278 163 522.108 162.212 522.404 161.25C524.735 153.679 531.597 118.787 531.892 113C531.935 112.175 532.612 106.775 533.398 101C535.59 84.883 538.152 49.49 537.808 40.07L537.5 31.64L533.643 48.544ZM102 36.833C102 37.292 102.675 37.667 103.5 37.667C104.325 37.667 105 37.292 105 36.833C105 36.375 104.325 36 103.5 36C102.675 36 102 36.375 102 36.833ZM129.183 45.25C126.766 55.462 126.031 58.941 125.293 63.683C124.862 66.448 125.051 66.8 126.732 66.36C127.796 66.082 128.704 65.324 128.75 64.677C129.173 58.664 130.165 49.54 130.446 49.077C130.982 48.193 132.213 36 131.766 36C131.549 36 130.387 40.163 129.183 45.25ZM92.0001 38.059C92.0001 38.641 92.4501 38.84 93.0001 38.5C93.5501 38.16 94.0001 37.684 94.0001 37.441C94.0001 37.198 93.5501 37 93.0001 37C92.4501 37 92.0001 37.477 92.0001 38.059ZM99.1291 40.647C99.1301 42.216 98.9091 44.962 98.6381 46.75C98.3631 48.568 98.5841 50 99.1401 50C99.7161 50 99.8351 49.055 99.4231 47.758C98.7801 45.733 98.8771 45.653 100.42 46.934C101.543 47.865 101.929 49.149 101.545 50.676C101.224 51.954 101.371 53 101.872 53C102.372 53 102.959 51.476 103.177 49.614C103.448 47.29 103.2 46.37 102.387 46.682C101.735 46.932 100.905 46.656 100.542 46.068C100.152 45.436 100.766 45 102.048 45C103.477 45 104.034 44.531 103.685 43.622C103.394 42.864 103.684 41.712 104.328 41.063C105.227 40.157 105.079 40.042 103.693 40.57C102.639 40.971 102.118 41.865 102.443 42.713C102.765 43.551 102.511 44.004 101.842 43.781C101.205 43.568 100.519 42.32 100.319 41.008C99.7901 37.541 99.1281 37.34 99.1291 40.647ZM94.1581 41C94.1581 42.375 94.3851 42.938 94.6621 42.25C94.9401 41.563 94.9401 40.438 94.6621 39.75C94.3851 39.063 94.1581 39.625 94.1581 41ZM267.5 40C267.16 40.55 267.359 41 267.941 41C268.523 41 269 40.55 269 40C269 39.45 268.802 39 268.559 39C268.316 39 267.84 39.45 267.5 40ZM155.824 43.75C154.166 45.703 149 56.512 149 58.027C149 58.562 148.523 59 147.941 59C147.359 59 147.178 59.478 147.539 60.063C147.9 60.648 147.54 61.885 146.739 62.813C145.938 63.741 145.036 65.513 144.735 66.75C144.284 68.604 144.604 69 146.555 69C148.503 69 149.116 68.247 150.011 64.75C150.609 62.413 151.369 59.825 151.7 59C152.031 58.175 152.411 56.995 152.544 56.377C152.677 55.759 153.461 53.734 154.286 51.877C156.875 46.047 158.22 42 157.567 42C157.425 42 156.641 42.788 155.824 43.75ZM88.9641 45.164C87.8191 47.397 87.8461 47.424 89.5741 45.774C90.5681 44.824 91.1071 43.773 90.7711 43.438C90.4361 43.103 89.6231 43.88 88.9641 45.164ZM247.515 47.719L245.759 50.5L248.074 48.278C249.347 47.056 250.137 45.804 249.83 45.497C249.522 45.189 248.481 46.189 247.515 47.719ZM264.564 46.707C264.022 48.132 264.136 48.247 265.124 47.267C265.808 46.588 266.115 45.781 265.807 45.474C265.499 45.166 264.94 45.721 264.564 46.707ZM164.641 47.845C163.194 49.443 153.048 68.852 153.015 70.083C153.007 70.404 153.563 70.68 154.25 70.696C154.938 70.713 161.043 72.182 167.818 73.962C174.593 75.741 180.243 77.04 180.373 76.849C180.504 76.657 181.647 71.347 182.914 65.048C184.181 58.749 185.444 53.007 185.72 52.287C186.056 51.412 185.685 51.184 184.604 51.599C183.713 51.94 181.887 51.5 180.545 50.621C179.203 49.742 177.4 49.293 176.54 49.623C175.679 49.953 174.418 49.789 173.737 49.257C173.057 48.725 171.074 47.811 169.332 47.226C166.721 46.348 165.896 46.457 164.641 47.845ZM179.5 48C179.84 48.55 180.316 49 180.559 49C180.802 49 181 48.55 181 48C181 47.45 180.523 47 179.941 47C179.359 47 179.16 47.45 179.5 48ZM96.0151 50.75C96.0071 52.538 96.1731 54 96.3831 54C97.2931 54 97.6791 50.102 96.8931 48.861C96.3071 47.936 96.0261 48.54 96.0151 50.75ZM262 51.059C262 51.641 262.45 51.84 263 51.5C263.55 51.16 264 50.684 264 50.441C264 50.198 263.55 50 263 50C262.45 50 262 50.477 262 51.059ZM376.5 51C376.16 51.55 376.359 52 376.941 52C377.523 52 378 51.55 378 51C378 50.45 377.802 50 377.559 50C377.316 50 376.84 50.45 376.5 51ZM98.5001 52C98.1601 52.55 98.3591 53 98.9411 53C99.5231 53 100 52.55 100 52C100 51.45 99.8021 51 99.5591 51C99.3161 51 98.8401 51.45 98.5001 52ZM241.104 56.535C238.199 59.843 236.778 63.873 239 62.5C239.55 62.16 240 61.428 240 60.874C240 60.32 241.178 58.322 242.619 56.433C246.037 51.952 245.071 52.016 241.104 56.535ZM101.168 55.128C101.076 56.023 99.9881 57.499 98.7501 58.407L96.5001 60.058L98.7501 58.994C101.166 57.851 101.754 58.846 99.8101 60.79C97.8521 62.748 98.0011 65 100.088 65C101.14 65 102 64.523 102 63.941C102 63.359 101.55 63.16 101 63.5C100.45 63.84 100 63.679 100 63.142C100 62.606 100.483 62.006 101.074 61.809C101.694 61.602 101.976 59.773 101.742 57.475C101.519 55.289 101.261 54.233 101.168 55.128ZM374.564 55.707C374.022 57.132 374.136 57.247 375.124 56.267C375.808 55.588 376.115 54.781 375.807 54.474C375.499 54.166 374.94 54.721 374.564 55.707ZM96.5001 56C96.8401 56.55 97.3161 57 97.5591 57C97.8021 57 98.0001 56.55 98.0001 56C98.0001 55.45 97.5231 55 96.9411 55C96.3591 55 96.1601 55.45 96.5001 56ZM259 57.059C259 57.641 259.45 57.84 260 57.5C260.55 57.16 261 56.684 261 56.441C261 56.198 260.55 56 260 56C259.45 56 259 56.477 259 57.059ZM83.1951 61.5C83.2151 63.15 83.4391 63.704 83.6931 62.731C83.9471 61.758 83.9301 60.408 83.6561 59.731C83.3821 59.054 83.1751 59.85 83.1951 61.5ZM93.4671 61.274C93.1541 62.524 93.3031 64.645 93.7991 65.987C94.5411 67.992 94.6841 67.586 94.6011 63.713C94.4881 58.418 94.2911 57.994 93.4671 61.274ZM256 62C256 62.55 256.45 63 257 63C257.55 63 258 62.55 258 62C258 61.45 257.55 61 257 61C256.45 61 256 61.45 256 62ZM96.0791 63.583C96.1271 64.748 96.3641 64.985 96.6831 64.188C96.9721 63.466 96.9361 62.603 96.6041 62.271C96.2721 61.939 96.0361 62.529 96.0791 63.583ZM454.096 65.25C453.627 66.487 452.263 70.992 451.066 75.259C449.87 79.526 448.214 84.637 447.387 86.617C446.063 89.785 446.119 92.214 447.485 90.849C447.931 90.402 452.467 75.52 454.829 66.75C455.935 62.644 455.457 61.666 454.096 65.25ZM88.1951 66.5C88.2151 68.15 88.4391 68.704 88.6931 67.731C88.9471 66.758 88.9301 65.408 88.6561 64.731C88.3821 64.054 88.1751 64.85 88.1951 66.5ZM206.114 71.25C200.5 83.478 199.987 84.874 200.903 85.44C201.39 85.741 202.548 84.077 203.476 81.744C204.405 79.41 205.774 76.15 206.52 74.5C209.515 67.87 210.861 64 210.17 64C209.77 64 207.945 67.263 206.114 71.25ZM328.667 64.667C328.3 65.033 328 65.798 328 66.367C328 66.993 328.466 66.934 329.183 66.217C329.834 65.566 330.134 64.801 329.85 64.517C329.566 64.233 329.033 64.3 328.667 64.667ZM185.713 71.68C184.731 75.425 184.34 78.74 184.823 79.223C185.307 79.707 186.328 76.771 187.146 72.543C187.949 68.394 188.35 65 188.036 65C187.722 65 186.676 68.006 185.713 71.68ZM253.564 67.707C253.022 69.132 253.136 69.247 254.124 68.267C254.808 67.588 255.115 66.781 254.807 66.474C254.499 66.166 253.94 66.721 253.564 67.707ZM98.5581 69.662C97.4521 70.953 96.0731 71.582 95.1361 71.222C93.7501 70.69 93.7381 70.806 95.0331 72.211C95.8401 73.087 96.6591 73.37 96.8541 72.84C97.0481 72.311 98.0051 72.6 98.9801 73.482C101.118 75.416 102.015 73.897 101.037 70L100.409 67.5L98.5581 69.662ZM113.388 68.782C112.777 69.177 112.077 70.897 111.833 72.606C111.469 75.153 111.695 75.631 113.092 75.266C114.029 75.021 115.742 75.326 116.898 75.945C118.877 77.005 119 76.828 119 72.919C119 69.293 118.753 68.831 117.048 69.277C115.974 69.558 114.962 69.4 114.798 68.926C114.634 68.452 114 68.387 113.388 68.782ZM123.346 73C122.282 76.983 122.29 77 125.139 77C127.81 77 128 76.735 128 73C128 69.82 127.632 69 126.207 69C124.959 69 124.088 70.217 123.346 73ZM98.5001 72C98.8401 72.55 99.3161 73 99.5591 73C99.8021 73 100 72.55 100 72C100 71.45 99.5231 71 98.9411 71C98.3591 71 98.1601 71.45 98.5001 72ZM115.459 72.067C115.096 72.653 115.014 73.348 115.276 73.61C115.538 73.872 116.019 73.392 116.345 72.543C117.021 70.781 116.445 70.471 115.459 72.067ZM141.873 73.833C140.635 77.089 141.419 79 143.994 79C145.475 79 146.216 78.168 146.645 76.024C147.37 72.399 147.037 71.632 144.664 71.457C143.55 71.375 142.453 72.31 141.873 73.833ZM-55.4289 79.966C-59.6879 93.447 -64.1539 110.965 -63.7969 112.788C-63.3079 115.289 -58.3699 100.813 -56.5359 91.5C-55.6699 87.1 -54.3109 81.046 -53.5169 78.047C-51.2789 69.591 -52.5569 70.874 -55.4289 79.966ZM238 72.633C238 73.785 242.981 78.352 243.582 77.751C243.801 77.533 242.634 76.065 240.99 74.49C239.345 72.915 238 72.079 238 72.633ZM499.643 73.107C498.319 77.668 493.978 96.738 493.988 97.95C493.996 98.928 494.329 99.071 495.012 98.388C496.17 97.23 501.297 72.964 500.543 72.21C500.27 71.937 499.865 72.341 499.643 73.107ZM151.25 73.679C150.563 73.947 150 75.003 150 76.024C150 77.046 149.543 78.165 148.984 78.51C147.372 79.506 148.889 81 151.512 81C153.795 81 155.517 81.563 162.651 84.641C164.384 85.388 166.495 86 167.342 86C169.053 86 170.536 87.797 169.599 88.735C169.268 89.066 167.985 88.851 166.748 88.259C162.997 86.461 160.851 85.95 161.507 87.011C161.843 87.555 162.879 88.033 163.809 88.073C164.739 88.113 166.85 88.988 168.5 90.017C175.747 94.537 179.009 95.852 178.992 94.25C178.983 93.352 174.14 91 172.301 91C171.585 91 171 90.325 171 89.5C171 88.675 171.204 88 171.453 88C172.47 88 177.542 90.519 178.104 91.302C178.436 91.766 179.009 89.583 179.377 86.452C180.035 80.854 178.917 77.315 176.887 78.57C176.399 78.871 175.445 78.775 174.768 78.356C174.09 77.937 172.852 77.524 172.018 77.438C171.183 77.351 167.8 76.564 164.5 75.688C156.919 73.676 152.841 73.058 151.25 73.679ZM96.0001 77.28C96.0001 79.348 96.0251 79.351 97.5821 77.441C98.8681 75.863 99.0641 75.817 98.6331 77.199C98.2531 78.414 98.5341 78.732 99.6181 78.316C100.684 77.907 100.82 77.42 100.077 76.677C98.1521 74.752 96.0001 75.07 96.0001 77.28ZM223.952 80.792C212.892 96.227 205.741 107.074 206.273 107.607C206.881 108.215 212.989 101.887 212.995 100.643C212.999 99.887 214.646 97.603 222.949 86.842C224.077 85.38 225 83.753 225 83.227C225 82.7 225.908 81.115 227.018 79.705C228.127 78.294 228.651 76.902 228.181 76.612C227.711 76.321 225.808 78.202 223.952 80.792ZM90.5001 79C90.8401 79.55 91.3161 80 91.5591 80C91.8021 80 92.0001 79.55 92.0001 79C92.0001 78.45 91.5231 78 90.9411 78C90.3591 78 90.1601 78.45 90.5001 79ZM111.75 78.662C112.438 78.94 113.563 78.94 114.25 78.662C114.938 78.385 114.375 78.158 113 78.158C111.625 78.158 111.063 78.385 111.75 78.662ZM123.528 78.966C121.776 79.602 121.86 79.74 124.278 80.202C125.775 80.488 127 80.362 127 79.92C127 78.59 125.614 78.209 123.528 78.966ZM139.575 80.879C139.265 81.38 139.684 82.048 140.506 82.364C141.328 82.679 142 82.528 142 82.028C142 80.672 140.223 79.83 139.575 80.879ZM182.335 86.516C181.55 90.847 181.621 92.271 182.667 93.139C183.684 93.983 184 93.861 184 92.622C184 91.73 184.07 90.786 184.155 90.524C184.24 90.261 184.619 88.011 184.996 85.524C186.02 78.781 183.571 79.694 182.335 86.516ZM110.75 82.662C111.438 82.94 112.563 82.94 113.25 82.662C113.938 82.385 113.375 82.158 112 82.158C110.625 82.158 110.063 82.385 110.75 82.662ZM149.733 83.124C150.412 83.808 151.219 84.115 151.526 83.807C151.834 83.499 151.279 82.94 150.293 82.564C148.868 82.022 148.753 82.136 149.733 83.124ZM90.8131 83.683C91.5341 83.972 92.3971 83.936 92.7291 83.604C93.0611 83.272 92.4711 83.036 91.4171 83.079C90.2521 83.127 90.0151 83.364 90.8131 83.683ZM156.5 85C156.84 85.55 157.568 86 158.118 86C158.668 86 158.84 85.55 158.5 85C158.16 84.45 157.432 84 156.882 84C156.332 84 156.16 84.45 156.5 85ZM480.136 90.168C480.061 91.086 479.709 92.661 479.353 93.668C478.853 95.082 478.987 95.241 479.937 94.365C480.615 93.741 480.968 92.166 480.721 90.865C480.474 89.564 480.211 89.251 480.136 90.168ZM516.413 94.553C514.475 99.193 513.402 104.841 514.714 103.5C515.796 102.394 519.132 91 518.374 91C518.112 91 517.23 92.599 516.413 94.553ZM404.065 95.421C403.097 96.588 403.257 96.746 404.958 96.301C407.46 95.646 408.693 94 406.681 94C405.891 94 404.714 94.64 404.065 95.421ZM181.285 96.354C181.83 97.989 184 98.305 184 96.75C184 95.971 183.313 95.333 182.472 95.333C181.632 95.333 181.098 95.793 181.285 96.354ZM237.667 95.667C237.3 96.033 237 96.798 237 97.367C237 97.993 237.466 97.934 238.183 97.217C238.834 96.566 239.134 95.801 238.85 95.517C238.566 95.233 238.033 95.3 237.667 95.667ZM398.5 97C398.16 97.55 398.809 98 399.941 98C401.073 98 402 97.55 402 97C402 96.45 401.352 96 400.559 96C399.766 96 398.84 96.45 398.5 97ZM462.689 97.114C461.693 97.693 460.26 97.93 459.504 97.64C457.928 97.035 445.47 121.177 446.276 123.276C446.545 123.977 451.409 125.347 457.413 126.414C463.275 127.455 468.307 128.688 468.595 129.154C469.307 130.306 468.888 130.262 457.653 127.991C452.238 126.896 446.958 126 445.92 126C444.656 126 443.137 127.732 441.317 131.25C439.823 134.137 438.69 136.837 438.8 137.25C438.91 137.662 438.1 138.9 437 140C433.915 143.085 434.561 144.21 438.478 142.574C440.391 141.774 442.198 141.511 442.494 141.99C442.789 142.468 447.411 142.881 452.765 142.909C458.119 142.936 464.373 143.238 466.661 143.579C471.618 144.319 472.739 142.945 473.385 135.34C473.611 132.678 474.041 129.825 474.34 129C475.491 125.825 479.216 101.882 478.647 101.314C477.893 100.56 477.675 101.278 474.941 113.5C472.295 125.331 471.176 124.75 473.431 112.716C474.294 108.111 475 103.11 475 101.601C475 98.889 474.934 98.861 469.007 99.103C465.711 99.238 462.711 99.044 462.341 98.674C461.97 98.303 462.417 98 463.333 98C464.25 98 465 97.55 465 97C465 95.79 464.962 95.792 462.689 97.114ZM130.553 99.915C130.184 100.512 130.136 101.412 130.447 101.915C130.758 102.418 130.529 102.99 129.937 103.188C129.346 103.385 128.769 105.197 128.655 107.215C128.542 109.234 128.164 111.17 127.816 111.518C127.468 111.866 127.592 113.576 128.091 115.319C128.591 117.061 129 119.664 129 121.103C129 127.649 139.261 141.102 146.137 143.569C147.776 144.157 149.078 145.029 149.031 145.507C148.984 145.984 149.52 146.463 150.223 146.572C150.925 146.68 153.325 147.264 155.556 147.871C161.422 149.464 175.256 147.984 178.039 145.464C178.929 144.659 180.41 144 181.329 144C182.248 144 182.888 143.662 182.75 143.25C182.613 142.838 182.782 142.5 183.127 142.5C184.106 142.5 194 131.871 194 130.82C194 130.304 194.445 130.157 194.989 130.493C195.555 130.843 195.723 130.442 195.382 129.552C195.042 128.668 195.315 128 196.015 128C196.867 128 196.744 127.311 195.612 125.75C194.714 124.513 193.542 122.479 193.008 121.232C192.152 119.234 188.46 117 186.014 117C185.544 117 184.851 118.401 184.475 120.112C183.61 124.054 177.774 130.565 172.858 133.072C168.039 135.531 159.827 135.559 154.491 133.135C149.588 130.907 144.63 125.44 142.98 120.44C141.621 116.323 142.173 105.701 143.851 103.679C144.42 102.994 144.574 101.94 144.193 101.337C143.203 99.77 131.402 98.54 130.553 99.915ZM394 99.969C394 100.501 394.675 100.678 395.5 100.362C396.325 100.045 397 99.609 397 99.393C397 99.177 396.325 99 395.5 99C394.675 99 394 99.436 394 99.969ZM442.494 102.25C442.251 102.938 440.455 107.727 438.503 112.894C433.576 125.941 434.822 126.416 440.094 113.5C441.517 110.012 443.912 101 443.415 101C443.152 101 442.738 101.563 442.494 102.25ZM492.16 103.24C491.522 103.878 491 104.979 491 105.686C491 107.819 482.879 132.234 480.871 136.136C479.842 138.136 479 140.686 479 141.803C479 142.92 478.438 144.034 477.75 144.28C475.982 144.911 476.991 145.616 480.661 146.313C483.764 146.903 483.845 146.821 485.145 141.707C485.873 138.843 486.519 136.05 486.581 135.5C486.643 134.95 486.972 133.825 487.312 133C487.811 131.788 492.808 111.931 494.42 104.751C494.915 102.544 493.682 101.718 492.16 103.24ZM151.555 107.299C149.567 111.563 149.289 117.233 151.038 117.835C151.574 118.02 151.81 118.498 151.563 118.898C150.856 120.042 155.4 124.821 158.212 125.891C159.612 126.423 161.6 126.7 162.629 126.506C163.658 126.312 165.738 126.119 167.25 126.077C168.994 126.028 170 125.451 170 124.5C170 123.675 170.427 123 170.948 123C171.47 123 173.158 121.801 174.698 120.336C176.239 118.871 176.825 118.058 176 118.528C174.806 119.209 174.725 119.09 175.606 117.942C178.228 114.521 177.818 112.439 174.107 110.329C172.123 109.201 168.747 107.958 166.604 107.566C164.461 107.175 161.761 106.266 160.604 105.546C159.447 104.827 157.375 103.988 156 103.683C153.834 103.201 153.24 103.685 151.555 107.299ZM-87.1389 109.293C-87.9469 111.057 -88.5059 114.075 -88.3809 116C-88.2559 117.925 -88.0789 120.625 -87.9879 122C-87.7769 125.168 -85.1669 116.236 -84.6859 110.699C-84.2609 105.809 -85.2769 105.226 -87.1389 109.293ZM103.106 108.203C102.421 109.298 102.179 110.488 102.568 110.847C102.956 111.206 103.481 110.919 103.734 110.208C104.092 109.205 104.513 109.181 105.621 110.101C107.77 111.884 108.063 110.79 106.089 108.355C104.363 106.226 104.34 106.225 103.106 108.203ZM413.069 111.649C412.485 113.767 411.352 117.638 410.551 120.25C409.751 122.862 409.475 125 409.938 125C410.914 125 415.401 109.068 414.64 108.306C414.36 108.027 413.653 109.531 413.069 111.649ZM115.078 111.854C114.268 113.368 114.311 114.061 115.247 114.6C115.936 114.996 116.166 114.952 115.759 114.502C115.351 114.052 115.528 113.069 116.151 112.318C116.775 111.566 117.032 110.699 116.724 110.39C116.415 110.081 115.674 110.74 115.078 111.854ZM67.5631 113.25C65.4841 120.199 62.9391 147.956 64.9561 141.687C65.4541 140.14 65.6781 137.923 65.4541 136.761C65.2301 135.599 65.4291 134.165 65.8951 133.574C66.3621 132.983 66.6891 131.037 66.6221 129.25C66.5551 127.462 66.8861 126 67.3571 126C67.8281 126 67.9731 125.373 67.6791 124.606C67.3851 123.839 67.4861 120.689 67.9051 117.606C68.6091 112.411 68.4441 110.305 67.5631 113.25ZM386.5 113C386.16 113.55 386.359 114 386.941 114C387.523 114 388 113.55 388 113C388 112.45 387.802 112 387.559 112C387.316 112 386.84 112.45 386.5 113ZM115 117.031C115 117.564 115.675 118 116.5 118C117.325 118 118 117.823 118 117.607C118 117.391 117.325 116.955 116.5 116.638C115.675 116.322 115 116.499 115 117.031ZM105.158 121C105.158 122.375 105.385 122.938 105.662 122.25C105.94 121.563 105.94 120.438 105.662 119.75C105.385 119.063 105.158 119.625 105.158 121ZM383.667 120.667C383.3 121.033 383 121.798 383 122.367C383 122.993 383.466 122.934 384.183 122.217C384.834 121.566 385.134 120.801 384.85 120.517C384.566 120.233 384.033 120.3 383.667 120.667ZM71.0791 123.583C71.1271 124.748 71.3641 124.985 71.6831 124.188C71.9721 123.466 71.9361 122.603 71.6041 122.271C71.2721 121.939 71.0361 122.529 71.0791 123.583ZM200.03 124.75C200.064 127.905 207.918 137.796 207.97 134.75C207.987 133.787 207.55 133 207 133C206.45 133 206 132.298 206 131.441C206 130.584 205.622 130.115 205.161 130.401C204.699 130.686 204.262 129.341 204.189 127.411C204.033 123.259 203.393 122 201.441 122C200.528 122 200.011 123.008 200.03 124.75ZM261.947 127.639C261.395 129.09 261.171 130.504 261.448 130.782C261.901 131.234 262.393 130.18 263.565 126.25C264.274 123.871 262.946 125.011 261.947 127.639ZM381.667 125.667C381.3 126.033 381 126.798 381 127.367C381 127.993 381.466 127.934 382.183 127.217C382.834 126.566 383.134 125.801 382.85 125.517C382.566 125.233 382.033 125.3 381.667 125.667ZM431.526 131.526C429.995 135.129 429.015 138.348 429.348 138.681C429.681 139.014 430.26 138.434 430.635 137.393C431.01 136.352 432.162 133.304 433.195 130.62C436.01 123.307 434.722 124.007 431.526 131.526ZM105.194 129.456C105.121 131.405 105.22 133 105.414 133C106.167 133 106.661 128.07 106.013 127.02C105.636 126.411 105.267 127.507 105.194 129.456ZM408.183 127.217C407.533 127.868 407 128.84 407 129.378C407 130.627 401.211 146.938 399.951 149.236C398.727 151.471 398.739 153 399.981 153C400.52 153 401.257 151.762 401.617 150.25C401.977 148.738 402.882 146.375 403.627 145C405.213 142.075 410.171 126.838 409.693 126.36C409.513 126.18 408.834 126.566 408.183 127.217ZM267.079 129.583C267.127 130.748 267.364 130.985 267.683 130.188C267.972 129.466 267.936 128.603 267.604 128.271C267.272 127.939 267.036 128.529 267.079 129.583ZM470 130C470 130.55 470.45 131 471 131C471.55 131 472 130.55 472 130C472 129.45 471.55 129 471 129C470.45 129 470 129.45 470 130ZM71.2501 131.662C69.5091 132.365 69.6841 134 71.5001 134C72.3251 134 73.0001 133.325 73.0001 132.5C73.0001 131.675 72.8871 131.036 72.7501 131.079C72.6131 131.122 71.9381 131.385 71.2501 131.662ZM76.0001 134C76.0001 134.55 76.4771 135 77.0591 135C77.6411 135 77.8401 134.55 77.5001 134C77.1601 133.45 76.6841 133 76.4411 133C76.1981 133 76.0001 133.45 76.0001 134ZM216 133.76C216 134.902 221.128 140.205 221.689 139.644C222.312 139.021 217.892 133 216.812 133C216.365 133 216 133.342 216 133.76ZM72.8131 136.683C73.5341 136.972 74.3971 136.936 74.7291 136.604C75.0611 136.272 74.4711 136.036 73.4171 136.079C72.2521 136.127 72.0151 136.364 72.8131 136.683ZM79.5001 138.461C80.6001 139.355 81.5001 140.479 81.5001 140.96C81.5001 141.44 81.8381 142.171 82.2501 142.583C82.6621 142.996 83.0001 142.133 83.0001 140.667C83.0001 139.2 82.5871 138 82.0821 138C81.5771 138 80.3391 137.738 79.3321 137.418C77.7051 136.902 77.7241 137.019 79.5001 138.461ZM71.0001 139C69.7181 139.828 69.7541 139.972 71.2501 139.985C72.2131 139.993 73.0001 139.55 73.0001 139C73.0001 137.78 72.8871 137.78 71.0001 139ZM446 139C446 140.253 447.061 140.253 449 139C450.213 138.216 450.069 138.028 448.25 138.015C447.013 138.007 446 138.45 446 139ZM85.5841 140.641C85.0601 142.008 85.2071 142.073 86.4641 141.03C87.2951 140.34 88.6791 140.046 89.5391 140.377C90.4391 140.722 90.8441 140.557 90.4931 139.989C89.5191 138.413 86.2741 138.844 85.5841 140.641ZM282.079 140.583C282.127 141.748 282.364 141.985 282.683 141.188C282.972 140.466 282.936 139.603 282.604 139.271C282.272 138.939 282.036 139.529 282.079 140.583ZM539.835 147.5C538.403 152.45 535.798 161 534.047 166.5C532.296 172 530.616 177.287 530.315 178.25C529.952 179.408 530.3 180 531.341 180C533.073 180 534.775 174.932 540.011 154.18C543.698 139.568 543.567 134.599 539.835 147.5ZM427.667 140.667C427.3 141.033 427 141.798 427 142.367C427 142.993 427.466 142.934 428.183 142.217C428.834 141.566 429.134 140.801 428.85 140.517C428.566 140.232 428.033 140.3 427.667 140.667ZM-61.0249 150.203C-65.5649 162.869 -69.1339 174.554 -68.1179 173.427C-66.2959 171.406 -56.0179 142.582 -56.8299 141.77C-57.3139 141.286 -59.1569 144.992 -61.0249 150.203ZM69.2871 143.962C69.5101 147.14 71.3741 148.072 72.3621 145.5C72.7181 144.57 72.3571 144 71.4101 144C70.5691 144 70.1411 143.581 70.4571 143.069C70.7741 142.557 70.5921 141.866 70.0541 141.533C69.4821 141.18 69.1631 142.192 69.2871 143.962ZM224.036 144.095C223.999 145.733 227.655 149.678 228.462 148.871C228.709 148.624 227.823 147.089 226.492 145.461C224.82 143.415 224.061 142.993 224.036 144.095ZM498.583 150.866C498.152 151.563 498.07 152.403 498.4 152.733C499.295 153.628 500.271 152.312 499.787 150.862C499.449 149.846 499.213 149.846 498.583 150.866ZM397 157C395.751 159.334 396.527 159.616 398.571 157.571C400.234 155.909 400.398 155 399.035 155C398.505 155 397.589 155.9 397 157ZM220 158.5C220 159.325 220.436 160 220.969 160C221.501 160 221.678 159.325 221.362 158.5C221.045 157.675 220.609 157 220.393 157C220.177 157 220 157.675 220 158.5ZM510.813 157.683C511.534 157.972 512.397 157.936 512.729 157.604C513.061 157.272 512.471 157.036 511.417 157.079C510.252 157.127 510.015 157.364 510.813 157.683ZM11.7301 160.75C11.4531 161.713 10.9011 163.293 10.5021 164.261C9.93912 165.63 10.1491 165.88 11.4461 165.382C12.3641 165.03 12.8781 164.125 12.5891 163.371C12.3001 162.617 12.4991 162 13.0311 162C13.5641 162 14.0001 161.325 14.0001 160.5C14.0001 158.429 12.3451 158.611 11.7301 160.75ZM438.629 159.704C438.242 160.091 436.03 160.453 433.713 160.508L429.5 160.609L429.711 165.433C429.918 170.169 432.333 174.53 434.134 173.417C434.61 173.123 435 173.343 435 173.906C435 175.25 437.954 176.787 441.862 177.476C443.96 177.845 445 177.626 445 176.814C445 175.908 445.288 175.888 446.136 176.736C447.382 177.982 450 176.138 450 174.012C450 173.391 450.48 173.179 451.067 173.542C451.654 173.904 452.38 173.261 452.681 172.112C452.982 170.963 453.531 170.21 453.902 170.439C454.55 170.84 455.056 168.262 455.357 163.012C455.472 161.009 454.915 160.398 452.5 159.88C448.279 158.975 439.471 158.863 438.629 159.704ZM380.872 162.664C379.628 164.172 379.71 164.216 381.75 163.129C384.077 161.889 384.65 161 383.122 161C382.64 161 381.627 161.749 380.872 162.664ZM414.5 162.605C412.3 163.373 409.712 164.278 408.75 164.617C406.704 165.337 406.668 165.511 408.035 168.066C408.749 169.399 408.749 170 408.035 170C407.466 170 407 170.477 407 171.059C407 171.641 407.4 171.871 407.888 171.569C408.647 171.1 409.637 174.198 410.183 178.75C410.266 179.438 410.708 180 411.167 180C411.625 180 412 180.675 412 181.5C412 182.325 412.45 183 413 183C413.55 183 413.888 183.346 413.75 183.769C413.612 184.192 414.513 185.627 415.75 186.958C416.987 188.288 418 189.645 418 189.973C418 190.301 419.462 191.419 421.25 192.459C423.038 193.499 424.725 194.612 425 194.933C426.355 196.514 436.865 199.294 441.384 199.266C447.752 199.228 451 198.771 451 197.915C451 197.348 456.958 196.025 459.296 196.073C460.69 196.101 474 181.878 474 180.359C474 179.557 474.643 177.658 475.428 176.139C476.214 174.62 477.104 171.274 477.406 168.703C477.923 164.309 477.78 163.938 475.028 162.514C473.417 161.681 470.55 161 468.657 161C465.225 161 465.21 161.021 464.136 167.117C462.257 177.783 454.776 184.786 444.317 185.669C432.601 186.658 422.163 178.014 421.211 166.535C420.714 160.536 420.608 160.474 414.5 162.605ZM394.625 163.798C394.354 164.237 394.545 165.249 395.051 166.048C395.768 167.182 395.973 167.007 395.985 165.25C396 162.937 395.492 162.394 394.625 163.798ZM9.20012 168.2C7.77013 169.63 7.58011 172.378 8.97112 171.518C10.0941 170.824 11.4831 175.409 10.5881 176.858C10.2581 177.392 10.5531 178.031 11.2441 178.278C11.9351 178.524 12.1921 179.058 11.8171 179.463C10.4181 180.971 8.89511 178.756 9.48412 176.071C9.93112 174.037 9.70012 173.333 8.58612 173.333C7.76112 173.333 6.85612 173.933 6.57413 174.667C6.29312 175.4 6.49913 176 7.03113 176C7.56413 176 8.00012 177.527 8.00012 179.393C8.00012 182.712 10.2641 185 11.5271 182.956C11.8521 182.43 12.5971 182 13.1811 182C13.8291 182 13.7341 182.616 12.9371 183.576C11.8551 184.88 11.8691 185.301 13.0171 186.01C14.9431 187.201 16.2711 186.143 15.6811 183.887C15.3251 182.525 15.7181 182 17.0941 182C19.7501 182 19.4711 183.659 16.3261 186.574C14.3711 188.385 13.9501 189.35 14.7591 190.159C16.3551 191.755 18.7731 190.501 19.2861 187.811C19.5721 186.317 19.7761 186.835 19.8641 189.275C19.9881 192.717 19.7331 193.103 16.9791 193.654C13.6031 194.329 12.4071 195.516 14.0691 196.543C15.4611 197.403 22.0001 193.95 22.0001 192.354C22.0001 191.699 22.3011 190.378 22.6701 189.418C23.0581 188.408 22.9371 187.921 22.3841 188.263C21.8591 188.587 21.3431 187.986 21.2381 186.927C20.8101 182.599 20.6261 182 19.7261 182C19.2091 182 19.0401 181.339 19.3501 180.531C19.6601 179.723 19.2611 177.81 18.4631 176.281C17.6651 174.751 17.0101 172.578 17.0061 171.45C16.9981 168.814 15.1621 167 12.5001 167C11.3451 167 9.86012 167.54 9.20012 168.2ZM390.046 168.914C389.432 170.062 389.347 171 389.858 171C390.886 171 392.304 167.971 391.605 167.271C391.361 167.028 390.66 167.767 390.046 168.914ZM48.0791 169.583C48.1271 170.748 48.3641 170.985 48.6831 170.188C48.9721 169.466 48.9361 168.603 48.6041 168.271C48.2721 167.939 48.0361 168.529 48.0791 169.583ZM21.1571 175.5C22.7451 181.414 29.3371 196.309 33.1601 202.617C36.9911 208.94 45.0421 218 46.8291 218C47.5541 218 47.8521 217.099 47.5721 215.75C47.3161 214.512 46.8401 208.775 46.5161 203C46.1911 197.225 45.6661 190.588 45.3491 188.25C44.7451 183.791 43.0491 182.387 42.9321 186.25C42.8661 188.453 42.8401 188.448 41.7011 186C40.5121 183.443 38.1371 181.089 36.6911 181.032C36.2461 181.014 36.1601 181.45 36.5001 182C36.8401 182.55 36.6791 183 36.1421 183C35.6061 183 35.0071 182.521 34.8121 181.935C34.6161 181.349 32.6831 180.73 30.5161 180.558C27.7221 180.336 26.1271 179.57 25.0371 177.927C24.1921 176.652 22.7311 174.684 21.7921 173.554C20.1491 171.579 20.1251 171.654 21.1571 175.5ZM13.2501 173.662C12.5631 173.94 12.0001 174.565 12.0001 175.052C12.0001 175.539 12.6801 175.676 13.5111 175.357C14.5111 174.974 14.8451 175.239 14.4991 176.141C14.2121 176.891 14.8821 178.07 15.9881 178.761C17.1771 179.503 18.0001 179.604 18.0001 179.008C18.0001 178.454 17.5501 178 17.0001 178C16.4501 178 16.0001 176.875 16.0001 175.5C16.0001 172.997 15.5851 172.72 13.2501 173.662ZM5.40112 179.765C4.25313 180.533 3.86412 187 4.96712 187C6.73212 187 7.85213 184.592 6.90712 182.826C6.35712 181.799 6.18013 180.518 6.51312 179.979C7.22812 178.821 6.90613 178.759 5.40112 179.765ZM387.252 185.5C387.263 187.7 387.468 188.482 387.707 187.238C387.946 185.994 387.937 184.194 387.687 183.238C387.437 182.282 387.241 183.3 387.252 185.5ZM520.75 182.77C519.788 182.977 519 183.588 519 184.127C519 185.498 531.257 184.729 531.724 183.329C532.085 182.244 524.9 181.878 520.75 182.77ZM9.00012 187.5C9.00012 188.325 9.45012 189 10.0001 189C10.5501 189 11.0001 189.675 11.0001 190.5C11.0001 191.325 10.3731 192 9.60712 192C8.84111 192 7.93011 192.739 7.58311 193.643C6.83812 195.586 6.92513 195.706 9.40813 196.155C11.9231 196.61 13.2801 192.009 11.6611 188.518C10.3661 185.727 9.00012 185.205 9.00012 187.5ZM0.978119 189.041C-0.299881 191.43 1.01312 196 2.97913 196C4.56212 196 4.18312 193.007 2.51813 192.369C1.37112 191.928 1.27612 191.352 2.09912 189.814C2.68413 188.722 2.93712 187.604 2.66212 187.329C2.38713 187.054 1.62912 187.824 0.978119 189.041ZM4.54312 189.931C4.22612 190.443 4.42511 191.144 4.98412 191.49C6.17711 192.227 8.00012 191.291 8.00012 189.941C8.00012 188.724 5.29312 188.716 4.54312 189.931ZM387.543 190.931C387.226 191.443 387.425 192.144 387.984 192.49C388.543 192.835 389 192.416 389 191.559C389 189.802 388.4 189.544 387.543 190.931ZM24.1161 195.559C24.0521 197.241 24.6031 199.442 25.3391 200.449C26.6351 202.222 26.7011 202.221 27.3941 200.417C27.8421 199.249 27.5721 198.16 26.6711 197.501C25.8801 196.923 25.0081 195.561 24.7331 194.475C24.3871 193.113 24.1961 193.45 24.1161 195.559ZM389 194.941C389 195.459 389.445 196.157 389.989 196.493C390.555 196.843 390.723 196.442 390.382 195.552C389.717 193.82 389 193.503 389 194.941ZM0.523117 197.963C0.184113 198.511 0.370117 199.823 0.93512 200.879C1.70811 202.323 1.61513 202.934 0.559128 203.339C-0.303879 203.67 -0.633881 204.685 -0.296875 205.973C0.225128 207.97 0.317123 207.943 1.62613 205.42C2.38213 203.963 3.00012 201.724 3.00012 200.445C3.00012 197.893 1.49712 196.387 0.523117 197.963ZM5.00012 198.5C5.00012 199.325 5.45012 200 6.00012 200C6.55013 200 7.00012 199.325 7.00012 198.5C7.00012 197.675 6.55013 197 6.00012 197C5.45012 197 5.00012 197.675 5.00012 198.5ZM18.7001 199.041C18.2511 200.756 18.5121 200.976 20.3331 200.417C23.1341 199.557 23.3321 199.346 22.5411 198.067C21.4531 196.307 19.2701 196.86 18.7001 199.041ZM9.61212 199.569C9.16112 200.743 9.55513 201.058 11.1771 200.819C12.3681 200.644 13.5291 199.938 13.7551 199.25C14.3641 197.402 10.3241 197.713 9.61212 199.569ZM-2.74988 200.72C-4.25089 201.256 -4.43387 204 -2.96887 204C-1.93687 204 -0.42189 201.198 -1.12589 200.594C-1.33188 200.418 -2.06187 200.475 -2.74988 200.72ZM7.25012 203.031C6.01212 203.529 5.00012 204.625 5.00012 205.468C5.00012 207.761 6.56213 207.318 8.40813 204.5C9.30913 203.125 9.92311 202.029 9.77312 202.063C9.62312 202.098 8.48813 202.534 7.25012 203.031ZM14.1651 203.597C11.8711 205.203 12.0791 207 14.5591 207C15.3521 207 16.0001 206.325 16.0001 205.5C16.0001 204.675 16.4501 204 17.0001 204C17.5501 204 18.0001 204.675 18.0001 205.5C18.0001 206.333 18.8891 207 20.0001 207C22.1961 207 22.4531 206.265 21.0391 204.029C20.5271 203.22 19.7881 202.878 19.3961 203.27C19.0051 203.662 18.1621 203.549 17.5241 203.02C16.7571 202.383 15.6191 202.579 14.1651 203.597ZM23.0001 203.378C23.0001 204.135 23.6701 205.311 24.4881 205.99C25.6981 206.994 26.0991 206.905 26.6341 205.512C27.0191 204.509 26.7131 203.432 25.8961 202.914C23.9011 201.651 23.0001 201.796 23.0001 203.378ZM-3.27988 207.332C-4.39388 210.165 -4.21188 211.612 -2.90588 210.306C-2.30489 209.705 -1.97989 208.377 -2.18588 207.356C-2.54588 205.566 -2.58487 205.565 -3.27988 207.332ZM9.00012 208.882C9.00012 209.432 9.45012 210.16 10.0001 210.5C10.5501 210.84 11.0001 210.668 11.0001 210.118C11.0001 209.568 10.5501 208.84 10.0001 208.5C9.45012 208.16 9.00012 208.332 9.00012 208.882ZM15.0001 209C15.0001 209.55 15.4501 210 16.0001 210C16.5501 210 17.0001 209.55 17.0001 209C17.0001 208.45 16.5501 208 16.0001 208C15.4501 208 15.0001 208.45 15.0001 209ZM22.0001 209C22.0001 209.55 22.7021 210 23.5591 210C24.4161 210 24.8401 209.55 24.5001 209C24.1601 208.45 23.4591 208 22.9411 208C22.4231 208 22.0001 208.45 22.0001 209ZM409.442 211.094C409.134 211.592 410.034 212 411.441 212C414.505 212 414.753 211.43 412.001 210.711C410.902 210.423 409.75 210.596 409.442 211.094ZM31.0001 212.559C31.0001 213.416 31.4501 213.84 32.0001 213.5C32.5501 213.16 33.0001 212.459 33.0001 211.941C33.0001 211.423 32.5501 211 32.0001 211C31.4501 211 31.0001 211.702 31.0001 212.559ZM-0.999878 214.155C-0.999878 216.179 -1.11087 216.21 -2.82887 214.655C-4.89487 212.785 -5.99988 212.545 -5.99988 213.965C-5.99988 214.495 -5.06288 215.431 -3.91689 216.045C-2.25789 216.932 -1.44788 216.811 0.0601196 215.446C1.90211 213.779 1.84111 212 -0.0588837 212C-0.576889 212 -0.999878 212.97 -0.999878 214.155ZM7.35213 213.053C6.17113 213.497 4.90712 214.341 4.54312 214.93C3.70212 216.292 4.58913 216.29 7.14012 214.925C8.80511 214.034 9.23714 214.19 9.66713 215.836C10.1521 217.689 10.3131 217.712 12.0931 216.188C13.1421 215.29 14.0001 213.911 14.0001 213.123C14.0001 211.983 13.6091 212.044 12.0881 213.42C10.4971 214.86 10.1191 214.907 9.83812 213.699C9.59512 212.656 8.89413 212.474 7.35213 213.053ZM16.7521 213.977C14.9561 216.075 15.4891 216.61 17.8721 215.1C18.6261 214.622 19.0731 213.719 18.8641 213.092C18.6351 212.404 17.8001 212.753 16.7521 213.977ZM24.9911 213.489C26.2401 214.994 28.0001 214.673 28.0001 212.941C28.0001 212.423 27.0451 212 25.8781 212C24.1111 212 23.9621 212.25 24.9911 213.489ZM34.6821 215.652C34.3231 216.01 35.2001 216.91 36.6291 217.652C40.1891 219.498 40.6241 219.347 38.5001 217C36.5871 214.887 35.7441 214.589 34.6821 215.652ZM-8.02088 217.013C-9.16388 217.72 -9.21988 218.18 -8.27388 219.126C-7.32888 220.071 -6.92188 219.961 -6.40887 218.624C-5.57387 216.447 -6.15788 215.862 -8.02088 217.013ZM28.5001 217C28.8401 217.55 29.5411 218 30.0591 218C30.5771 218 31.0001 217.55 31.0001 217C31.0001 216.45 30.2981 216 29.4411 216C28.5841 216 28.1601 216.45 28.5001 217ZM19.2501 218.662C17.5601 219.344 17.6611 221 19.3931 221C20.1591 221 21.0451 220.325 21.3621 219.5C21.9501 217.967 21.4581 217.771 19.2501 218.662ZM25.0001 219.559C25.0001 220.416 25.4501 220.84 26.0001 220.5C26.5501 220.16 27.0001 219.459 27.0001 218.941C27.0001 218.423 26.5501 218 26.0001 218C25.4501 218 25.0001 218.702 25.0001 219.559ZM34.0001 222C34.0001 222.55 34.4771 223 35.0591 223C35.6411 223 35.8401 222.55 35.5001 222C35.1601 221.45 34.6841 221 34.4411 221C34.1981 221 34.0001 221.45 34.0001 222ZM29.0001 223C29.0001 223.55 29.4501 224 30.0001 224C30.5501 224 31.0001 223.55 31.0001 223C31.0001 222.45 30.5501 222 30.0001 222C29.4501 222 29.0001 222.45 29.0001 223ZM9.50012 224C9.84012 224.55 10.3161 225 10.5591 225C10.8021 225 11.0001 224.55 11.0001 224C11.0001 223.45 10.5231 223 9.94112 223C9.35912 223 9.16013 223.45 9.50012 224ZM23.5001 224C23.8401 224.55 24.3161 225 24.5591 225C24.8021 225 25.0001 224.55 25.0001 224C25.0001 223.45 24.5231 223 23.9411 223C23.3591 223 23.1601 223.45 23.5001 224ZM33.0001 226.059C33.0001 226.641 33.4501 226.84 34.0001 226.5C34.5501 226.16 35.0001 225.684 35.0001 225.441C35.0001 225.198 34.5501 225 34.0001 225C33.4501 225 33.0001 225.477 33.0001 226.059ZM38.8131 225.683C39.5341 225.972 40.3971 225.936 40.7291 225.604C41.0611 225.272 40.4711 225.036 39.4171 225.079C38.2521 225.127 38.0151 225.364 38.8131 225.683ZM-9.36088 226.694C-10.4869 227.82 -10.0459 229 -8.49988 229C-7.67488 229 -6.99988 228.577 -6.99988 228.059C-6.99988 226.798 -8.56187 225.895 -9.36088 226.694ZM13.7291 226.604C13.3281 227.005 13.0001 228.023 13.0001 228.867C13.0001 229.992 13.2961 230.104 14.1131 229.288C14.7241 228.676 15.0531 227.657 14.8421 227.025C14.6311 226.393 14.1301 226.203 13.7291 226.604ZM42.5001 229C42.1601 229.55 42.3591 230 42.9411 230C43.5231 230 44.0001 229.55 44.0001 229C44.0001 228.45 43.8021 228 43.5591 228C43.3161 228 42.8401 228.45 42.5001 229ZM-0.999878 232.059C-0.999878 232.641 -0.549881 232.84 0.00012207 232.5C0.550125 232.16 1.00012 231.684 1.00012 231.441C1.00012 231.198 0.550125 231 0.00012207 231C-0.549881 231 -0.999878 231.477 -0.999878 232.059ZM27.5431 231.931C26.8601 233.036 28.4371 234.23 29.3611 233.306C30.3111 232.355 30.1341 231 29.0591 231C28.5411 231 27.8591 231.419 27.5431 231.931ZM33.5001 232C33.8401 232.55 34.3161 233 34.5591 233C34.8021 233 35.0001 232.55 35.0001 232C35.0001 231.45 34.5231 231 33.9411 231C33.3591 231 33.1601 231.45 33.5001 232ZM-10.9999 237C-10.9999 237.55 -10.5499 238 -9.99988 238C-9.44987 238 -8.99988 237.55 -8.99988 237C-8.99988 236.45 -9.44987 236 -9.99988 236C-10.5499 236 -10.9999 236.45 -10.9999 237ZM18.0001 239C18.0001 239.55 18.4501 240 19.0001 240C19.5501 240 20.0001 239.55 20.0001 239C20.0001 238.45 19.5501 238 19.0001 238C18.4501 238 18.0001 238.45 18.0001 239ZM-0.499878 240C-0.159882 240.55 0.316132 241 0.559128 241C0.802124 241 1.00012 240.55 1.00012 240C1.00012 239.45 0.523117 239 -0.0588837 239C-0.640884 239 -0.839874 239.45 -0.499878 240Z" fill="black"/>
</g>
<rect x="2.5" y="2.5" width="595" height="225" stroke="black" stroke-width="5"/>
<path d="M670 180.421V0H670.242L761.781 130.116L751.879 128.181L843.177 0H843.66V180.421H820.473V53.2072L821.922 65.0578L755.985 158.412H755.502L688.598 65.0578L692.704 54.1746V180.421H670Z" fill="white"/>
<path d="M929.827 182.839C920.488 182.839 911.954 180.824 904.225 176.793C896.657 172.762 890.619 166.877 886.111 159.138C881.763 151.237 879.589 141.644 879.589 130.358C879.589 119.232 881.924 109.639 886.594 101.577C891.263 93.3544 897.462 87.0663 905.191 82.7129C913.081 78.3596 921.696 76.183 931.035 76.183C940.374 76.183 948.264 78.3596 954.705 82.7129C961.146 86.905 966.057 91.9033 969.438 97.7077L967.989 101.577L970.163 80.2944H990.935V180.421H968.472V154.301L970.888 160.105C970.243 161.718 968.794 163.814 966.54 166.393C964.447 168.812 961.548 171.311 957.845 173.891C954.302 176.47 950.196 178.647 945.527 180.421C940.857 182.033 935.624 182.839 929.827 182.839ZM935.866 164.217C941.501 164.217 946.574 163.169 951.082 161.073C955.591 158.977 959.294 156.074 962.192 152.366C965.252 148.496 967.345 143.901 968.472 138.58V118.991C967.184 114.154 964.93 109.961 961.709 106.414C958.489 102.706 954.625 99.8843 950.116 97.9495C945.607 95.8535 940.616 94.8055 935.141 94.8055C929.183 94.8055 923.709 96.2566 918.717 99.1588C913.726 102.061 909.7 106.092 906.641 111.251C903.742 116.411 902.293 122.457 902.293 129.39C902.293 135.839 903.823 141.725 906.882 147.045C909.942 152.366 914.048 156.558 919.2 159.621C924.353 162.685 929.908 164.217 935.866 164.217Z" fill="white"/>
<path d="M1049.85 80.2944L1051.78 104.721L1050.82 100.852C1054.04 93.435 1059.27 87.55 1066.52 83.1966C1073.76 78.6821 1082.14 76.4248 1091.64 76.4248C1101.14 76.4248 1108.87 79.2464 1114.82 84.8896C1120.94 90.3715 1124.08 97.5465 1124.24 106.414V180.421H1101.54V114.395C1101.38 108.913 1099.77 104.479 1096.71 101.094C1093.81 97.5464 1089.22 95.7729 1082.94 95.7729C1077.15 95.7729 1071.91 97.3852 1067.24 100.61C1062.57 103.835 1058.87 108.269 1056.13 113.912C1053.56 119.555 1052.27 126.085 1052.27 133.502V180.421H1029.81V80.2944H1049.85Z" fill="white"/>
<path d="M1211.37 230C1203.96 230 1197.44 229.113 1191.81 227.34C1186.17 225.727 1181.02 223.389 1176.35 220.326C1171.84 217.263 1167.49 213.796 1163.31 209.926L1176.35 194.69C1181.66 199.688 1187.06 203.558 1192.53 206.299C1198.01 209.04 1204.13 210.41 1210.89 210.41C1218.46 210.41 1224.82 209.12 1229.97 206.541C1235.28 204.122 1239.31 200.655 1242.05 196.141C1244.78 191.788 1246.15 186.709 1246.15 180.904L1246.39 153.817L1248.33 158.17C1245.43 165.103 1240.19 170.988 1232.63 175.825C1225.06 180.501 1215.88 182.839 1205.09 182.839C1195.91 182.839 1187.46 180.501 1179.73 175.825C1172.16 171.15 1166.04 164.862 1161.38 156.961C1156.87 148.899 1154.61 139.87 1154.61 129.874C1154.61 119.394 1157.03 110.203 1161.86 102.303C1166.69 94.2412 1173.05 87.8724 1180.94 83.1966C1188.83 78.5209 1197.44 76.183 1206.78 76.183C1215.64 76.183 1223.69 78.0372 1230.94 81.7455C1238.34 85.2927 1243.74 89.8878 1247.12 95.531L1245.91 99.6425L1248.33 80.2944H1268.86V181.146C1268.86 190.175 1266.52 198.398 1261.85 205.815C1257.18 213.232 1250.58 219.117 1242.05 223.47C1233.51 227.823 1223.29 230 1211.37 230ZM1177.07 129.39C1177.07 135.839 1178.6 141.725 1181.66 147.045C1184.72 152.366 1188.83 156.558 1193.98 159.621C1199.3 162.685 1205.17 164.217 1211.61 164.217C1217.57 164.217 1222.88 163.169 1227.55 161.073C1232.39 158.815 1236.41 155.832 1239.63 152.124C1242.85 148.254 1245.11 143.821 1246.39 138.822V118.991C1244.94 114.154 1242.53 109.961 1239.15 106.414C1235.77 102.706 1231.74 99.8843 1227.07 97.9495C1222.4 95.8535 1217.25 94.8055 1211.61 94.8055C1205.17 94.8055 1199.3 96.2566 1193.98 99.1588C1188.83 102.061 1184.72 106.172 1181.66 111.493C1178.6 116.653 1177.07 122.618 1177.07 129.39Z" fill="white"/>
<path d="M1349.2 182.839C1339.86 182.839 1331.33 180.824 1323.6 176.793C1316.03 172.762 1309.99 166.877 1305.49 159.138C1301.14 151.237 1298.96 141.644 1298.96 130.358C1298.96 119.232 1301.3 109.639 1305.97 101.577C1310.64 93.3544 1316.84 87.0663 1324.57 82.7129C1332.46 78.3596 1341.07 76.183 1350.41 76.183C1359.75 76.183 1367.64 78.3596 1374.08 82.7129C1380.52 86.905 1385.43 91.9033 1388.81 97.7077L1387.36 101.577L1389.54 80.2944H1410.31V180.421H1387.85V154.301L1390.26 160.105C1389.62 161.718 1388.17 163.814 1385.91 166.393C1383.82 168.812 1380.92 171.311 1377.22 173.891C1373.68 176.47 1369.57 178.647 1364.9 180.421C1360.23 182.033 1355 182.839 1349.2 182.839ZM1355.24 164.217C1360.88 164.217 1365.95 163.169 1370.46 161.073C1374.97 158.977 1378.67 156.074 1381.57 152.366C1384.63 148.496 1386.72 143.901 1387.85 138.58V118.991C1386.56 114.154 1384.3 109.961 1381.08 106.414C1377.86 102.706 1374 99.8843 1369.49 97.9495C1364.98 95.8535 1359.99 94.8055 1354.52 94.8055C1348.56 94.8055 1343.08 96.2566 1338.09 99.1588C1333.1 102.061 1329.07 106.092 1326.02 111.251C1323.12 116.411 1321.67 122.457 1321.67 129.39C1321.67 135.839 1323.2 141.725 1326.26 147.045C1329.32 152.366 1333.42 156.558 1338.58 159.621C1343.73 162.685 1349.28 164.217 1355.24 164.217Z" fill="white"/>
<path d="M1605.93 185.983L1470.92 48.8538L1477.68 50.5468L1478.16 180.421H1454.74V0.241848H1455.94L1589.51 137.855L1583.95 136.646L1583.47 5.56257H1606.66V185.983H1605.93Z" fill="#FF0202"/>
<path d="M1697.69 182.839C1686.26 182.839 1676.44 180.582 1668.23 176.067C1660.02 171.392 1653.65 165.103 1649.15 157.203C1644.8 149.141 1642.63 139.951 1642.63 129.632C1642.63 119.797 1645.12 110.848 1650.11 102.787C1655.1 94.7249 1661.79 88.2755 1670.16 83.4385C1678.53 78.6015 1687.87 76.183 1698.18 76.183C1711.38 76.183 1722.33 80.0526 1731.02 87.7918C1739.72 95.531 1745.6 106.172 1748.66 119.716L1666.3 148.738L1660.98 135.436L1728.61 110.768L1723.78 113.912C1721.85 108.591 1718.63 103.996 1714.12 100.126C1709.61 96.0953 1703.73 94.0799 1696.49 94.0799C1690.37 94.0799 1684.89 95.6116 1680.06 98.6751C1675.23 101.577 1671.45 105.608 1668.71 110.768C1665.97 115.927 1664.6 121.812 1664.6 128.423C1664.6 135.356 1666.05 141.483 1668.95 146.803C1671.85 151.963 1675.8 156.074 1680.79 159.138C1685.94 162.04 1691.74 163.491 1698.18 163.491C1702.52 163.491 1706.71 162.685 1710.74 161.073C1714.92 159.46 1718.79 157.364 1722.33 154.784L1732.72 171.472C1727.72 174.858 1722.09 177.599 1715.81 179.695C1709.69 181.791 1703.65 182.839 1697.69 182.839Z" fill="#FF0202"/>
<path d="M1811.65 117.539L1835.56 80.2944H1858.27L1819.86 133.985L1811.65 117.539ZM1862.13 180.421H1835.08L1759 80.2944H1786.77L1862.13 180.421ZM1809.24 143.176L1782.91 180.421H1760.2L1798.37 128.181L1809.24 143.176Z" fill="#FF0202"/>
<path d="M1917.89 184.29C1908.87 184.29 1901.38 181.549 1895.42 176.067C1889.63 170.424 1886.57 163.169 1886.25 154.301V80.2944H1908.71V146.32C1909.03 151.802 1910.56 156.236 1913.3 159.621C1916.2 163.007 1920.7 164.781 1926.82 164.942C1932.46 164.942 1937.45 163.33 1941.8 160.105C1946.31 156.719 1949.93 152.205 1952.67 146.562C1955.4 140.757 1956.77 134.227 1956.77 126.972V80.2944H1979.23V180.421H1958.7L1956.77 155.752L1957.98 160.105C1956.05 164.781 1953.07 168.973 1949.04 172.681C1945.18 176.229 1940.59 179.05 1935.28 181.146C1929.96 183.242 1924.17 184.29 1917.89 184.29Z" fill="#FF0202"/>
<path d="M2046.11 182.355C2039.03 182.355 2032.1 181.146 2025.34 178.728C2018.74 176.148 2013.27 172.359 2008.92 167.361L2018.34 154.301C2022.52 158.332 2026.79 161.395 2031.14 163.491C2035.65 165.426 2040.08 166.393 2044.42 166.393C2047.64 166.393 2050.62 165.99 2053.36 165.184C2056.1 164.378 2058.27 163.088 2059.88 161.314C2061.65 159.38 2062.54 156.8 2062.54 153.575C2062.54 150.028 2061.33 147.206 2058.91 145.11C2056.66 143.014 2053.68 141.321 2049.98 140.032C2046.44 138.742 2042.65 137.532 2038.63 136.404C2030.41 133.663 2024.13 129.874 2019.79 125.037C2015.44 120.2 2013.27 114.315 2013.27 107.382C2013.27 102.061 2014.55 97.1434 2017.13 92.6288C2019.87 87.953 2023.81 84.164 2028.97 81.2618C2034.28 78.3596 2040.8 76.9085 2048.53 76.9085C2055.45 76.9085 2061.65 77.7953 2067.13 79.5689C2072.6 81.1812 2077.75 83.9222 2082.58 87.7918L2073.65 101.819C2070.75 98.7557 2067.29 96.4984 2063.26 95.0473C2059.24 93.5962 2055.61 92.7901 2052.39 92.6288C2049.66 92.4676 2047 92.8707 2044.42 93.8381C2042.01 94.8055 2039.99 96.176 2038.38 97.9495C2036.77 99.7231 2035.97 101.819 2035.97 104.238C2035.97 107.624 2037.1 110.365 2039.35 112.461C2041.61 114.557 2044.5 116.25 2048.05 117.539C2051.75 118.668 2055.37 119.877 2058.91 121.167C2063.91 122.618 2068.33 124.553 2072.2 126.972C2076.06 129.39 2079.12 132.373 2081.38 135.92C2083.79 139.467 2085 143.901 2085 149.222C2085 155.188 2083.55 160.75 2080.65 165.91C2077.92 170.908 2073.65 174.939 2067.85 178.002C2062.22 180.904 2054.97 182.355 2046.11 182.355Z" fill="#FF0202"/>
<defs>
<clipPath id="clip0_666_12637">
<rect width="600" height="230" fill="white"/>
</clipPath>
</defs>
</svg>
